<?xml version="1.0" standalone="no"?>
<!DOCTYPE svg PUBLIC "-//W3C//DTD SVG 20010904//EN"
 "http://www.w3.org/TR/2001/REC-SVG-20010904/DTD/svg10.dtd">
<svg version="1.0" xmlns="http://www.w3.org/2000/svg"
 width="1280.000000pt" height="737.000000pt" viewBox="0 0 1280.000000 737.000000"
 preserveAspectRatio="xMidYMid meet">
<metadata>
Created by potrace 1.15, written by Peter Selinger 2001-2017
</metadata>
<g transform="translate(0.000000,737.000000) scale(0.100000,-0.100000)"
fill="#000000" stroke="none">
<path d="M7336 7293 c-3 -42 -6 -102 -6 -135 l0 -58 415 0 415 0 77 -81 c43
-45 82 -88 86 -95 6 -10 -23 -71 -88 -187 l-97 -172 121 -425 c67 -234 121
-430 121 -435 0 -7 -606 -9 -1712 -8 l-1713 3 -22 67 c-13 37 -23 72 -23 78 0
6 35 17 78 24 110 18 358 91 498 146 214 84 314 148 329 208 14 53 -50 111
-134 121 -102 13 -1571 79 -1783 80 l-226 1 -26 -24 c-51 -48 -28 -113 79
-229 144 -155 284 -226 555 -282 58 -11 114 -25 126 -29 15 -7 36 -52 83 -179
63 -170 63 -171 45 -194 -203 -255 -789 -968 -796 -968 -5 0 -55 25 -111 54
-234 125 -514 216 -807 261 -148 23 -450 31 -607 15 -525 -50 -1021 -270
-1416 -628 -427 -387 -690 -889 -778 -1487 -18 -118 -18 -492 0 -610 84 -571
327 -1049 728 -1435 197 -190 383 -321 628 -440 250 -122 476 -190 770 -232
117 -16 483 -16 605 1 542 74 1019 305 1404 680 300 292 506 621 631 1004 18
53 34 99 36 102 3 2 166 -25 364 -60 198 -36 363 -65 367 -65 3 0 17 -19 31
-43 24 -40 87 -105 149 -152 l26 -20 -64 -299 c-35 -165 -65 -305 -68 -313 -4
-9 -29 -13 -91 -13 l-85 0 -1 -70 c-1 -38 -2 -76 -3 -82 -1 -10 55 -16 219
-25 121 -6 241 -11 268 -12 l47 -1 0 90 0 90 -65 0 c-36 0 -65 2 -65 5 0 3 32
128 71 278 39 150 75 288 80 308 8 31 14 38 43 43 56 11 152 64 190 106 74 82
103 177 84 280 l-10 62 44 46 c25 26 409 457 854 957 1661 1869 1533 1729
1545 1698 6 -16 30 -81 55 -146 l44 -118 -32 -27 c-210 -174 -375 -359 -518
-578 -177 -272 -303 -592 -361 -917 -27 -156 -37 -486 -19 -650 91 -828 587
-1539 1338 -1917 249 -125 464 -191 787 -242 106 -16 494 -16 610 0 554 79
1011 299 1398 672 401 386 644 864 728 1435 18 118 18 492 0 610 -100 682
-427 1237 -966 1642 -210 157 -428 271 -690 358 -264 88 -492 125 -772 125
-366 0 -700 -72 -1023 -220 -58 -27 -108 -45 -111 -42 -4 4 -81 212 -172 462
-91 250 -247 677 -346 949 -100 272 -181 498 -181 502 0 6 131 230 201 345
l19 32 -222 241 -222 241 -477 0 -476 0 -7 -77z m-295 -2023 l1477 0 25 -81
25 -81 -1150 -1287 c-633 -707 -1154 -1287 -1157 -1289 -4 -1 -1 60 5 135 7
76 13 144 13 151 1 8 20 12 61 12 l60 0 0 33 c0 17 3 56 6 85 l7 52 -232 0
-231 0 0 -29 c0 -15 -3 -56 -6 -90 l-7 -61 52 0 c60 0 58 12 33 -165 l-17
-120 -447 1345 c-246 740 -450 1358 -454 1374 l-7 29 234 -6 c129 -4 898 -7
1710 -7z m-2272 -435 c55 -168 410 -1244 767 -2325 68 -206 122 -375 121 -376
-1 0 -171 16 -377 37 -206 21 -379 38 -385 39 -6 0 -9 70 -7 197 9 471 -89
880 -299 1258 -112 202 -227 354 -406 535 l-104 106 308 366 c169 202 311 364
314 360 4 -4 34 -92 68 -197z m-1974 -460 c226 -35 451 -103 618 -187 56 -28
75 -42 70 -52 -4 -7 -245 -325 -535 -707 l-527 -694 -61 -18 c-82 -24 -151
-90 -174 -168 -20 -66 -20 -92 -1 -156 40 -135 184 -210 329 -171 42 11 104 1
933 -157 488 -92 891 -171 896 -175 11 -9 -47 -178 -103 -295 -259 -553 -786
-963 -1400 -1090 -338 -70 -683 -50 -1015 60 -715 235 -1234 854 -1340 1596
-30 214 -16 511 35 724 119 500 440 942 883 1217 241 150 544 255 833 288 110
12 439 4 559 -15z m7753 15 c916 -98 1640 -790 1767 -1690 19 -139 19 -404 -1
-539 -62 -426 -252 -806 -553 -1110 -667 -673 -1722 -780 -2508 -254 -683 456
-1011 1269 -833 2063 79 354 268 697 519 944 69 68 70 69 80 45 91 -215 130
-299 181 -391 192 -348 416 -602 813 -926 67 -54 77 -66 77 -95 0 -17 10 -52
21 -77 70 -156 264 -198 395 -86 92 78 116 213 57 317 -36 64 -100 112 -175
129 -37 9 -70 27 -108 59 -490 408 -693 692 -875 1223 -33 95 -41 129 -32 136
7 5 48 28 92 49 334 166 729 240 1083 203z m-6686 -501 c32 -27 92 -91 134
-142 280 -333 399 -692 421 -1266 l6 -173 -29 6 c-16 3 -391 65 -834 136 -442
72 -806 132 -807 134 -2 2 92 127 209 278 117 151 353 455 523 676 171 220
312 401 315 401 3 1 31 -22 62 -50z"/>
</g>
</svg>
