<?xml version="1.0" standalone="no"?>
<!DOCTYPE svg PUBLIC "-//W3C//DTD SVG 20010904//EN"
 "http://www.w3.org/TR/2001/REC-SVG-20010904/DTD/svg10.dtd">
<svg version="1.0" xmlns="http://www.w3.org/2000/svg"
 width="1280.000000pt" height="803.000000pt" viewBox="0 0 1280.000000 803.000000"
 preserveAspectRatio="xMidYMid meet">
<metadata>
Created by potrace 1.15, written by Peter Selinger 2001-2017
</metadata>
<g transform="translate(0.000000,803.000000) scale(0.100000,-0.100000)"
fill="#000000" stroke="none">
<path d="M7460 5100 c-377 -15 -575 -40 -835 -107 -160 -40 -255 -73 -337
-114 -63 -32 -63 -32 -48 -59 8 -16 1 -27 -41 -67 -28 -26 -146 -163 -262
-303 -277 -335 -290 -350 -303 -350 -7 0 -15 7 -18 16 -10 25 -35 -1 -62 -63
-17 -37 -29 -53 -43 -53 -10 0 -24 -7 -31 -15 -10 -13 -10 -19 5 -35 17 -19
17 -21 -11 -57 -66 -87 -119 -133 -152 -133 -23 0 -39 -9 -58 -29 -27 -31 -49
-32 -57 -2 -3 13 -18 20 -53 25 -100 13 -1006 19 -1204 7 -508 -30 -845 -107
-1159 -262 l-143 -71 -37 20 c-21 12 -64 28 -97 37 -32 8 -60 20 -62 25 -2 6
-25 10 -51 10 -58 0 -85 -25 -107 -95 -18 -62 -18 -188 1 -250 13 -45 13 -50
-6 -76 -11 -16 -26 -32 -34 -36 -9 -5 -18 -42 -25 -98 -24 -190 -87 -427 -122
-458 -15 -13 -22 -33 -26 -82 -3 -45 -9 -65 -18 -65 -24 0 -78 127 -114 268
-14 53 -33 54 -60 3 -11 -22 -24 -42 -29 -45 -9 -6 -16 -79 -31 -345 -8 -132
-7 -177 2 -188 38 -46 275 -126 304 -102 16 13 71 5 124 -18 19 -9 59 -17 89
-19 30 -2 59 -8 65 -14 5 -5 26 -10 46 -10 20 0 41 -5 46 -10 6 -6 41 -11 78
-13 l68 -2 37 -105 c55 -156 95 -224 186 -315 186 -187 443 -250 765 -189 70
13 120 26 340 91 189 55 307 123 425 242 l69 71 201 0 200 -1 64 -79 c73 -90
138 -156 146 -148 3 3 1 49 -5 103 -13 113 -5 134 31 85 32 -43 94 -78 163
-91 52 -9 59 -8 72 8 7 10 14 37 14 61 l0 43 133 -6 c72 -4 148 -11 167 -16
19 -5 76 -12 125 -16 l91 -6 12 27 12 27 668 -7 c408 -4 898 -2 1262 5 431 8
672 9 875 1 154 -6 287 -13 295 -16 13 -5 51 -47 144 -159 24 -30 25 -30 142
-33 113 -4 120 -5 155 -33 63 -50 117 -69 196 -69 67 0 77 -3 134 -40 129 -83
239 -105 534 -105 199 0 200 0 282 31 45 17 107 46 138 65 70 42 171 147 214
222 l32 55 62 7 c34 3 197 15 362 26 506 33 463 28 487 62 l22 30 -180 -6
c-98 -4 -296 -16 -439 -27 -143 -11 -264 -20 -269 -20 -9 0 -7 14 20 128 14
58 22 73 38 77 126 24 251 37 267 27 10 -7 41 -12 68 -12 41 0 51 -4 56 -20 3
-11 14 -20 23 -20 100 -1 413 -22 443 -30 21 -6 45 -20 53 -31 13 -19 22 -21
90 -17 91 4 107 16 77 54 -17 21 -21 40 -21 93 0 44 5 74 15 87 8 10 15 24 15
31 0 19 -59 33 -137 33 -69 0 -74 2 -85 25 -13 29 -15 27 37 46 l40 15 -3 110
c-4 168 -2 165 -102 184 -49 9 -87 22 -91 30 -74 132 -527 856 -650 1039 -90
134 -169 253 -176 265 -7 11 -19 25 -27 31 -8 6 -42 48 -76 94 -83 113 -601
631 -710 711 -47 34 -87 66 -88 71 -2 5 7 18 20 29 36 28 56 140 36 200 -19
58 -63 83 -134 77 -53 -5 -94 -24 -94 -43 0 -15 -98 -114 -113 -114 -7 0 -50
16 -95 35 -345 145 -789 216 -1527 244 -465 18 -515 19 -725 11z m1793 -3541
c21 -28 36 -54 33 -56 -3 -3 -22 -2 -42 2 -36 6 -83 45 -105 87 -9 16 -5 18
33 18 40 0 46 -4 81 -51z"/>
</g>
</svg>
