<svg height="335" viewBox="0 0 308 335" width="308" xmlns="http://www.w3.org/2000/svg"
     xmlns:xlink="http://www.w3.org/1999/xlink">
  <defs>
    <circle cx="135" cy="161" id="b" r="135"/>
    <filter filterUnits="objectBoundingBox" height="129.3%" id="a" width="127.4%" x="-13.7%" y="-8.1%">
      <feMorphology in="SourceAlpha" operator="dilate" radius="4.5" result="shadowSpreadOuter1"/>
      <feOffset dy="20" in="shadowSpreadOuter1" result="shadowOffsetOuter1"/>
      <feGaussianBlur in="shadowOffsetOuter1" result="shadowBlurOuter1" stdDeviation="7.5"/>
      <feComposite in="shadowBlurOuter1" in2="SourceAlpha" operator="out" result="shadowBlurOuter1"/>
      <feColorMatrix in="shadowBlurOuter1" values="0 0 0 0 0 0 0 0 0 0 0 0 0 0 0 0 0 0 0.2 0"/>
    </filter>
    <path d="M0 .137h149.99V136H0z" id="c"/>
  </defs>
  <g fill="none" fill-rule="evenodd">
    <g transform="translate(19)">
      <use fill="#000" filter="url(#a)" xlink:href="#b"/>
      <use fill="#FFF" stroke="#87BF48" stroke-width="9" xlink:href="#b"/>
    </g>
    <g transform="translate(124)">
      <circle cx="30" cy="30" fill="#87BF48" r="30"/>
      <text fill="#FFF" font-family="Roboto-Bold" font-size="30" font-weight="bold">
        <tspan x="20.788" y="40">1</tspan>
      </text>
    </g>
    <g transform="translate(79 101)">
      <mask fill="#fff" id="d">
        <use xlink:href="#c"/>
      </mask>
      <path d="M59.148 3.676c-19.87-4.002-52.224-8.238-47.18 9.356 5.044 17.594 37.173 40.435 4.83 64.665-32.343 24.23-18.863 37.193 48.121 53.861 66.984 16.668 95.159-16.276 81.862-53.861C133.483 40.11 79.018 7.679 59.148 3.677"
            fill="#E8E8E8"
            mask="url(#d)"/>
    </g>
    <path d="M219.647 135.567c14.145 28.014-1.575 64.498-35.112 81.49-33.538 16.991-72.193 8.056-86.338-19.958-14.145-28.014 1.576-64.498 35.113-81.49 33.537-16.99 72.192-8.055 86.337 19.958"
          fill="#DCD8EF"/>
    <path d="M204.68 185.456c-3.844 0-6.961-3.11-6.961-6.945 0-3.836 3.117-6.945 6.962-6.945 3.844 0 6.961 3.11 6.961 6.945 0 3.835-3.117 6.945-6.961 6.945m-16.115-62.707h1.553a4.197 4.197 0 0 1 3.875 2.579l10.64 25.535c1.148 2.757-.882 5.793-3.875 5.793H119.24c-2.992 0-5.022-3.036-3.874-5.793l10.64-25.535a4.196 4.196 0 0 1 3.874-2.579h1.554a2.377 2.377 0 0 0 2.38-2.374 2.378 2.378 0 0 0-2.38-2.375h-7.883a4.196 4.196 0 0 0-3.867 2.562l-7.72 18.297a4.196 4.196 0 0 1-3.867 2.562h-7.901A4.19 4.19 0 0 0 96 145.607v3.507a4.191 4.191 0 0 0 4.196 4.186c2.86 0 4.88 2.79 3.984 5.499l-2.941 8.873v39.142a4.19 4.19 0 0 0 4.196 4.186h12.445a4.19 4.19 0 0 0 4.196-4.186v-5.735a4.191 4.191 0 0 1 4.196-4.186h67.455a4.19 4.19 0 0 1 4.196 4.186v5.735A4.19 4.19 0 0 0 202.12 211h12.446a4.19 4.19 0 0 0 4.196-4.186v-39.142l-2.941-8.873c-.905-2.73 1.158-5.544 4.054-5.499 2.295.037 4.126-1.924 4.126-4.214v-3.48a4.19 4.19 0 0 0-4.196-4.185h-7.902a4.196 4.196 0 0 1-3.867-2.562l-7.72-18.297A4.195 4.195 0 0 0 196.45 118h-7.883a2.377 2.377 0 0 0-2.38 2.375 2.377 2.377 0 0 0 2.38 2.374m-1.702 66.485h-53.728c-2.967 0-5.1-2.846-4.261-5.685l2.601-8.804a4.441 4.441 0 0 1 4.262-3.179h48.524a4.442 4.442 0 0 1 4.262 3.179l2.6 8.804c.84 2.84-1.293 5.685-4.26 5.685m-71.659-3.778c-3.845 0-6.961-3.11-6.961-6.945 0-3.836 3.116-6.945 6.961-6.945s6.961 3.11 6.961 6.945c0 3.835-3.116 6.945-6.96 6.945"
          fill="#483F7D"/>
    <path d="M151.533 137.93l-4.57 1.644c-1.775.64-3.703-.466-4.018-2.303l-.81-4.729a2.956 2.956 0 0 0-.784-1.542l-4.98 8.261c-.988 1.64.1 3.735 2.027 3.903l4.975.436c.794.07 1.513.491 1.955 1.145l2.765 4.1c1.072 1.587 3.458 1.528 4.447-.112l4.46-7.4-2.1-2.503a3.052 3.052 0 0 0-3.367-.9M177.76 132.651l-.837 4.724c-.325 1.835-2.254 2.929-4.02 2.279l-4.544-1.672a3.036 3.036 0 0 0-3.362.88l-1.997 2.36 4.513 7.511c.985 1.64 3.364 1.7 4.432.112l2.757-4.1a2.624 2.624 0 0 1 1.95-1.145l4.958-.436c1.92-.168 3.005-2.263 2.02-3.903L178.665 131a2.966 2.966 0 0 0-.904 1.651"
          fill="#9ABF28"/>
    <path d="M160 129.337c-9.575 0-17.338-7.762-17.338-17.337S150.425 94.663 160 94.663c9.575 0 17.337 7.762 17.337 17.337s-7.762 17.337-17.337 17.337m25.117-19.158l-3.044-2.549a2.468 2.468 0 0 1-.73-2.753l1.385-3.72a2.469 2.469 0 0 0-1.887-3.293l-3.91-.685a2.468 2.468 0 0 1-2.008-2.02l-.662-3.914a2.468 2.468 0 0 0-3.28-1.907l-3.729 1.362a2.47 2.47 0 0 1-2.749-.746l-2.53-3.059a2.468 2.468 0 0 0-3.794-.011l-2.549 3.043a2.468 2.468 0 0 1-2.753.729l-3.72-1.384a2.468 2.468 0 0 0-3.292 1.887l-.686 3.91a2.467 2.467 0 0 1-2.02 2.008l-3.914.662a2.468 2.468 0 0 0-1.907 3.28l1.362 3.73c.358.98.06 2.081-.746 2.748l-3.059 2.53a2.468 2.468 0 0 0-.012 3.794l3.044 2.549c.801.67 1.093 1.774.729 2.752l-1.384 3.722a2.468 2.468 0 0 0 1.887 3.291l3.91.686c1.03.18 1.834.99 2.008 2.02l.662 3.914a2.468 2.468 0 0 0 3.28 1.907l3.729-1.362a2.469 2.469 0 0 1 2.749.746l2.53 3.06a2.469 2.469 0 0 0 3.794.01l2.55-3.044a2.468 2.468 0 0 1 2.751-.728l3.722 1.384a2.468 2.468 0 0 0 3.291-1.887l.686-3.91c.18-1.03.99-1.834 2.02-2.008l3.914-.662a2.468 2.468 0 0 0 1.907-3.28l-1.362-3.729a2.468 2.468 0 0 1 .746-2.748l3.06-2.53a2.468 2.468 0 0 0 .01-3.795"
          fill="#9ABF28"/>
    <path d="M115.251 173.316c-2.609 0-4.731 2.146-4.731 4.783 0 2.638 2.122 4.783 4.731 4.783 2.61 0 4.732-2.145 4.732-4.783 0-2.637-2.123-4.783-4.732-4.783m0 13.977c-5.014 0-9.094-4.124-9.094-9.194 0-5.07 4.08-9.194 9.094-9.194 5.015 0 9.094 4.125 9.094 9.194 0 5.07-4.08 9.194-9.094 9.194M117.908 213H105.55c-3.5 0-6.348-2.879-6.348-6.418v-39.39c0-.235.038-.468.11-.692l2.92-8.93a2.003 2.003 0 0 0-.276-1.805 1.956 1.956 0 0 0-1.608-.831c-3.5 0-6.348-2.88-6.348-6.418v-3.529c0-3.539 2.848-6.418 6.348-6.418h7.846c.8 0 1.519-.482 1.83-1.228l7.664-18.413c.994-2.386 3.29-3.928 5.85-3.928h7.828c2.506 0 4.545 2.061 4.545 4.595 0 2.533-2.039 4.595-4.545 4.595h-1.543a1.98 1.98 0 0 0-1.833 1.236l-10.564 25.697a1.996 1.996 0 0 0 .182 1.885 1.95 1.95 0 0 0 1.65.892h31.295c1.204 0 2.18.988 2.18 2.206 0 1.217-.976 2.205-2.18 2.205h-31.294a6.317 6.317 0 0 1-5.28-2.856 6.465 6.465 0 0 1-.582-6.025l10.565-25.697c.988-2.402 3.288-3.954 5.861-3.954h1.543c.1 0 .182-.083.182-.184a.183.183 0 0 0-.182-.184h-7.827c-.8 0-1.519.482-1.83 1.228l-7.665 18.413c-.993 2.387-3.29 3.928-5.85 3.928h-7.846c-1.095 0-1.985.9-1.985 2.007v3.529c0 1.107.89 2.007 1.985 2.007 2.061 0 3.937.969 5.144 2.659a6.408 6.408 0 0 1 .883 5.773l-2.81 8.593v39.034c0 1.107.89 2.007 1.985 2.007h12.358c1.095 0 1.985-.9 1.985-2.007v-5.772c0-3.538 2.848-6.417 6.347-6.417h46.579c1.205 0 2.181.987 2.181 2.206 0 1.217-.976 2.205-2.181 2.205H126.24c-1.094 0-1.984.9-1.984 2.006v5.772c0 3.54-2.848 6.418-6.348 6.418"
          fill="#7967A6"/>
    <path d="M200.66 158.581h-27.472a2.192 2.192 0 0 1-2.188-2.194c0-1.212.98-2.194 2.188-2.194h27.473c.677 0 1.28-.324 1.656-.889a1.971 1.971 0 0 0 .182-1.875l-6.02-14.523a2.197 2.197 0 0 1 1.182-2.869 2.186 2.186 0 0 1 2.86 1.184l6.02 14.524a6.389 6.389 0 0 1-.583 5.995 6.352 6.352 0 0 1-5.297 2.841m17.932 11.033a2.19 2.19 0 0 1-2.078-1.506l-2.929-8.886a6.41 6.41 0 0 1 .915-5.785 6.394 6.394 0 0 1 5.264-2.604c.58 0 .99-.284 1.234-.525a2.12 2.12 0 0 0 .624-1.5v-3.485a1.996 1.996 0 0 0-1.99-1.997h-7.872a6.354 6.354 0 0 1-5.87-3.908l-6.45-15.372a2.197 2.197 0 0 1 1.168-2.873 2.186 2.186 0 0 1 2.866 1.171l6.45 15.372a1.987 1.987 0 0 0 1.836 1.221h7.871c3.511 0 6.368 2.865 6.368 6.386v3.485c0 1.73-.704 3.417-1.931 4.628a6.14 6.14 0 0 1-4.402 1.785 1.96 1.96 0 0 0-1.64.814 1.98 1.98 0 0 0-.286 1.81l2.93 8.885a2.196 2.196 0 0 1-2.078 2.884m-14.026 3.898c-2.617 0-4.746 2.135-4.746 4.76s2.129 4.76 4.746 4.76c2.617 0 4.747-2.135 4.747-4.76s-2.13-4.76-4.747-4.76m0 13.908c-5.03 0-9.123-4.104-9.123-9.148 0-5.045 4.093-9.149 9.123-9.149 5.03 0 9.123 4.104 9.123 9.15 0 5.043-4.092 9.147-9.123 9.147M202.016 213c-3.512 0-6.368-2.865-6.368-6.386v-5.743c0-1.101-.894-1.997-1.992-1.997h-22.475a2.191 2.191 0 0 1-2.188-2.194c0-1.213.98-2.195 2.188-2.195h22.475c3.512 0 6.368 2.865 6.368 6.386v5.743c0 1.101.893 1.997 1.992 1.997h12.397a1.996 1.996 0 0 0 1.992-1.997v-5.556c0-1.212.98-2.194 2.188-2.194 1.208 0 2.188.982 2.188 2.194v5.556c0 3.521-2.857 6.386-6.368 6.386h-12.397z"
          fill="#B5A4EA"/>
    <path d="M174 112c0 7.732-6.268 14-14 14s-14-6.268-14-14 6.268-14 14-14 14 6.268 14 14" fill="#6FB555"/>
  </g>
</svg>
