<?xml version="1.0" standalone="no"?>
<!DOCTYPE svg PUBLIC "-//W3C//DTD SVG 20010904//EN"
 "http://www.w3.org/TR/2001/REC-SVG-20010904/DTD/svg10.dtd">
<svg version="1.0" xmlns="http://www.w3.org/2000/svg"
 width="1280.000000pt" height="723.000000pt" viewBox="0 0 1280.000000 723.000000"
 preserveAspectRatio="xMidYMid meet">
<metadata>
Created by potrace 1.15, written by Peter Selinger 2001-2017
</metadata>
<g transform="translate(0.000000,723.000000) scale(0.100000,-0.100000)"
fill="#000000" stroke="none">
<path d="M5615 7219 c-28 -4 -55 -16 -63 -26 -11 -16 -25 -17 -115 -13 -56 2
-196 4 -312 4 -175 -1 -227 -5 -312 -23 -151 -32 -224 -67 -265 -129 -24 -36
-23 -130 2 -297 24 -160 25 -199 4 -231 -14 -20 -22 -24 -44 -19 -22 5 -30 1
-43 -19 -9 -14 -14 -31 -11 -39 6 -18 -12 -32 -21 -17 -3 6 10 38 31 73 20 34
39 65 41 70 2 4 -5 7 -15 7 -15 0 -42 -36 -104 -140 -45 -76 -88 -139 -94
-140 -16 0 -75 -94 -78 -122 -2 -13 -99 -183 -216 -378 -117 -195 -219 -368
-225 -385 -22 -59 -39 -86 -49 -81 -292 120 -489 167 -520 124 -14 -19 -52
-24 -58 -9 -1 5 -10 10 -18 11 -37 5 -49 -1 -55 -30 -5 -23 -11 -29 -23 -26
-38 12 -207 27 -367 32 -137 5 -172 9 -182 22 -31 38 -1113 -47 -1113 -88 0
-19 103 -45 601 -154 338 -74 459 -91 474 -65 14 22 421 -9 613 -47 142 -28
382 -102 420 -130 2 -1 -23 -42 -55 -91 -120 -178 -176 -294 -273 -563 -71
-195 -96 -250 -114 -250 -19 0 -19 -2 -1 49 l14 42 -45 19 c-25 11 -49 20 -53
20 -4 0 -15 -16 -24 -35 -17 -36 -24 -40 -52 -29 -13 5 -15 15 -9 50 6 41 5
44 -22 55 -70 26 -83 24 -99 -15 -15 -36 -36 -45 -64 -27 -9 6 -11 20 -6 49 6
38 5 42 -19 48 -14 3 -40 7 -58 7 -29 2 -34 -2 -44 -33 -8 -23 -18 -35 -30
-35 -15 0 -20 9 -24 45 -5 42 -7 45 -45 52 -61 13 -77 7 -90 -32 -22 -65 -64
-47 -65 27 0 19 -6 22 -56 25 -61 3 -68 -1 -79 -49 -8 -40 -32 -43 -40 -5 -11
52 -18 56 -76 53 -29 -1 -57 -5 -61 -7 -5 -3 -11 -23 -14 -45 -9 -54 -37 -53
-53 2 l-13 42 -50 -6 c-64 -8 -81 -22 -76 -64 5 -44 -14 -43 -41 2 -23 39 -22
39 -90 24 -45 -9 -50 -13 -55 -45 -4 -19 -4 -38 -1 -43 3 -6 1 -12 -5 -16 -11
-7 -28 8 -46 40 -14 23 -56 25 -100 3 -25 -12 -29 -19 -28 -56 1 -48 -8 -53
-32 -17 -23 36 -46 39 -101 12 -48 -23 -48 -23 -46 -70 1 -26 -3 -47 -7 -47
-5 0 -22 14 -38 31 l-29 31 -43 -22 c-68 -35 -73 -43 -56 -85 16 -36 8 -47
-14 -19 -31 37 -49 37 -104 0 -52 -34 -54 -37 -46 -70 4 -18 10 -39 14 -45 13
-20 -16 -11 -46 14 -29 25 -31 25 -52 8 -80 -66 -92 -88 -61 -113 28 -24 15
-30 -21 -10 l-37 19 -46 -40 c-49 -44 -57 -70 -33 -107 18 -28 9 -41 -15 -20
-35 29 -49 28 -85 -10 -61 -65 -61 -66 -34 -95 l24 -26 -42 5 c-42 6 -43 6
-79 -45 -36 -50 -37 -52 -22 -81 9 -17 20 -30 25 -30 6 0 10 -5 10 -11 0 -7
-8 -9 -22 -4 -61 18 -62 18 -96 -35 -34 -51 -36 -83 -7 -94 28 -10 15 -22 -20
-20 -33 3 -37 0 -60 -46 -33 -64 -32 -79 7 -113 l33 -28 -40 6 c-48 7 -66 -8
-90 -74 -16 -46 -8 -71 21 -71 26 0 14 -17 -18 -26 -28 -8 -36 -17 -50 -61
-21 -63 -17 -75 30 -105 l37 -23 -43 -3 c-50 -4 -67 -24 -75 -90 -5 -43 -4
-44 31 -59 37 -16 37 -16 12 -25 -14 -5 -25 -8 -26 -6 0 2 -8 -3 -17 -11 -12
-10 -17 -30 -17 -73 l0 -60 40 -15 c48 -19 50 -28 9 -37 -46 -9 -59 -28 -59
-86 0 -39 4 -52 18 -56 9 -3 30 -11 45 -17 l29 -10 -41 -19 c-38 -17 -41 -22
-40 -56 2 -69 11 -86 54 -94 55 -12 63 -24 23 -37 -49 -16 -59 -39 -45 -98
l12 -48 47 -3 c27 -2 48 -7 48 -11 0 -4 -18 -17 -40 -30 -22 -12 -40 -25 -39
-29 0 -4 8 -29 17 -57 17 -50 17 -50 66 -55 52 -5 71 -24 36 -35 -11 -4 -29
-16 -40 -27 -18 -20 -18 -22 0 -67 l18 -46 51 2 c61 2 66 -12 16 -45 l-34 -24
27 -54 c27 -56 39 -62 86 -45 18 8 28 6 37 -5 10 -12 7 -20 -19 -44 -18 -16
-32 -34 -32 -40 0 -17 49 -90 60 -90 6 0 26 6 44 14 52 22 65 1 24 -41 l-31
-32 29 -42 c35 -51 48 -57 86 -35 28 17 30 17 48 1 19 -17 19 -18 -10 -53
l-29 -35 30 -39 c35 -43 44 -45 79 -18 30 24 44 25 60 5 11 -13 9 -20 -13 -43
-15 -16 -27 -32 -27 -38 0 -10 74 -74 86 -74 4 0 20 12 36 27 27 26 28 26 48
8 25 -22 25 -33 0 -65 -11 -14 -20 -28 -20 -32 0 -3 18 -21 41 -39 l40 -32 34
33 c30 29 36 32 52 19 10 -7 20 -14 22 -16 2 -1 -7 -18 -19 -39 l-23 -37 24
-18 c60 -45 69 -46 98 -10 l28 34 31 -18 31 -18 -20 -40 c-11 -21 -19 -40 -17
-41 24 -18 78 -46 87 -46 6 0 19 16 28 35 18 38 29 42 56 22 15 -10 15 -17 5
-50 -13 -43 -10 -47 50 -70 l42 -17 17 35 c11 23 24 35 37 35 38 0 46 -12 36
-55 -10 -45 -8 -48 39 -64 50 -16 56 -14 74 25 13 27 23 35 39 32 18 -3 22
-10 22 -47 l1 -45 49 -12 c28 -7 53 -11 57 -8 4 2 13 20 19 40 10 30 16 35 38
32 23 -3 26 -7 26 -48 1 -41 3 -45 31 -51 70 -15 81 -12 95 31 17 52 50 57 50
7 0 -46 15 -57 77 -57 l52 0 11 40 c8 28 16 40 29 40 12 0 22 -13 30 -40 l12
-40 53 0 c47 0 54 3 64 25 7 14 12 35 12 45 0 30 27 24 35 -7 11 -47 23 -54
79 -47 28 4 54 9 58 13 4 3 9 24 11 46 6 54 27 56 49 5 20 -44 21 -45 83 -29
45 11 55 25 55 82 0 37 13 34 36 -9 18 -33 21 -35 56 -30 75 12 88 24 88 78 0
26 3 48 7 48 4 0 21 -17 39 -37 l32 -36 48 20 c27 10 49 24 49 30 0 6 3 14 7
18 3 4 2 20 -3 38 -5 17 -7 32 -6 34 2 1 16 -11 32 -27 33 -34 44 -36 88 -14
59 30 66 40 55 86 -5 22 -7 42 -5 44 2 2 20 -10 40 -27 l37 -31 45 28 c50 32
63 65 40 100 -19 29 -12 31 22 4 36 -28 52 -25 103 19 l44 38 -16 41 c-9 23
-13 42 -10 42 4 0 25 -9 46 -21 l39 -20 36 35 c41 40 48 69 25 103 -17 27 -12
29 20 8 32 -21 42 -17 88 32 42 44 43 60 13 109 -11 18 -11 20 3 19 10 -1 27
-7 40 -14 29 -15 43 -6 79 56 24 41 24 45 9 68 -9 14 -22 25 -28 25 -6 0 -9 2
-6 5 3 3 18 1 33 -5 37 -14 63 4 95 65 18 35 22 49 13 52 -7 3 -13 11 -13 19
0 8 -7 17 -15 20 -33 13 -13 25 29 19 43 -7 45 -6 61 26 36 69 37 86 2 115
-25 20 -27 24 -10 19 46 -13 70 4 91 62 23 62 17 83 -26 103 -33 15 -20 24 28
22 39 -3 39 -3 55 49 21 73 19 83 -17 101 l-32 15 41 6 40 7 12 61 c11 53 10
63 -4 79 -9 10 -28 21 -41 24 -35 9 -20 26 22 26 41 0 48 13 49 90 0 53 -1 55
-30 60 -37 6 -33 22 9 35 30 10 31 11 31 75 l0 65 -42 13 c-50 16 -58 42 -14
42 42 0 55 21 48 80 -8 62 -12 70 -42 70 -52 0 -57 12 -14 33 44 22 43 17 23
120 -6 27 -19 33 -70 28 -36 -3 -38 28 -4 41 45 15 52 37 34 98 l-15 51 -45
-4 c-33 -4 -44 -2 -44 9 0 8 4 14 8 14 4 0 20 10 34 21 l27 22 -19 50 c-23 60
-31 66 -80 60 -49 -7 -63 20 -21 42 40 20 44 39 19 90 -23 47 -36 53 -84 35
-45 -17 -50 9 -9 45 l34 30 -30 53 c-17 28 -35 52 -40 52 -6 0 -24 -7 -40 -16
-24 -12 -34 -13 -45 -3 -20 16 -18 24 17 58 l30 31 -32 45 c-18 25 -34 45 -36
45 -2 0 -20 -9 -40 -20 -33 -18 -39 -18 -52 -5 -13 13 -12 18 12 43 15 15 27
31 27 36 0 14 -63 86 -75 86 -7 0 -24 -9 -38 -20 -32 -25 -39 -25 -55 0 -11
18 -10 25 8 47 11 14 20 31 20 37 0 14 -62 76 -75 76 -5 0 -21 -12 -37 -27
-27 -26 -28 -26 -48 -8 -20 18 -20 18 7 53 l26 35 -24 19 c-68 54 -67 54 -102
20 l-32 -31 -27 20 -27 20 23 37 c12 20 21 42 19 48 -2 6 21 36 52 67 41 43
55 65 55 87 0 16 8 35 18 42 48 36 66 104 37 145 -14 20 -9 31 83 184 54 90
113 190 131 221 18 32 37 60 42 64 13 7 131 -78 249 -181 105 -91 244 -248
320 -360 185 -273 291 -649 316 -1115 l7 -125 100 -102 c55 -57 108 -103 117
-103 14 0 18 13 23 67 4 38 7 99 7 136 l0 68 73 -74 c81 -84 182 -140 285
-159 l60 -11 83 -275 c85 -277 109 -332 149 -332 12 0 36 -33 78 -107 125
-224 211 -337 285 -375 96 -48 115 -51 462 -55 l330 -4 115 -49 c226 -95 344
-117 540 -100 243 21 563 89 631 135 47 31 56 61 36 121 l-15 47 53 -7 c32 -4
56 -2 60 4 3 5 26 10 50 10 24 0 46 4 50 9 3 6 22 4 47 -5 22 -7 61 -14 87
-14 25 0 114 -9 196 -21 186 -26 245 -47 179 -63 -25 -7 -26 -9 -19 -53 10
-65 22 -93 41 -93 15 0 15 -2 2 -22 -13 -19 -13 -29 -1 -78 12 -46 20 -58 44
-69 29 -13 30 -14 10 -27 -20 -14 -20 -14 2 -76 14 -39 29 -63 40 -66 14 -3
17 -11 13 -28 -9 -35 37 -122 69 -130 26 -6 32 -18 15 -29 -14 -8 -5 -36 29
-91 14 -24 33 -44 42 -44 22 0 31 -11 19 -25 -7 -8 1 -27 25 -61 19 -27 40
-50 45 -50 6 -1 19 -2 30 -3 16 -1 19 -5 12 -17 -20 -36 59 -131 98 -119 20 6
22 4 17 -17 -5 -20 2 -33 38 -68 38 -37 48 -42 75 -37 18 4 29 3 25 -3 -12
-20 9 -61 46 -91 38 -30 40 -31 65 -14 25 16 26 16 24 -7 -4 -41 -1 -47 43
-73 46 -26 81 -32 92 -15 10 16 25 12 19 -5 -4 -8 -1 -21 5 -29 6 -7 8 -15 5
-19 -3 -3 17 -17 44 -31 45 -23 53 -24 66 -11 21 22 38 18 34 -7 -2 -17 7 -28
37 -45 50 -28 82 -29 111 -3 l21 21 7 -41 c3 -22 7 -40 9 -40 1 0 24 -7 50
-15 47 -14 48 -14 69 10 22 25 41 25 31 0 -8 -23 13 -42 55 -49 20 -4 45 -9
54 -12 13 -4 24 6 40 33 22 37 23 37 29 13 15 -63 21 -70 55 -72 19 -1 42 -2
51 -2 10 -1 27 15 39 38 l23 40 6 -30 c4 -16 8 -34 10 -40 5 -16 104 -28 120
-14 7 6 15 24 19 40 7 37 23 39 32 5 3 -14 10 -25 15 -25 5 0 9 -7 9 -16 0
-12 10 -14 53 -12 l52 3 9 43 c11 49 25 50 41 1 7 -19 18 -33 26 -32 113 13
109 11 109 53 0 55 24 60 50 9 15 -28 26 -39 38 -35 9 2 32 7 50 11 30 6 32 9
32 50 0 58 24 68 45 19 14 -35 16 -36 52 -29 66 12 76 22 69 65 -5 29 -2 39
10 44 26 10 30 7 50 -29 10 -19 19 -35 20 -35 11 0 94 43 94 49 0 4 -5 23 -11
41 -9 26 -9 34 2 41 24 15 34 10 53 -26 l19 -35 46 26 c25 15 47 28 49 30 2 1
-4 17 -14 35 -16 32 -16 33 6 51 30 25 35 23 59 -17 l21 -36 40 27 c22 15 40
31 40 36 0 6 -9 23 -20 38 l-21 29 25 16 c24 16 26 15 53 -14 l28 -31 39 33
c40 35 41 41 11 83 -15 20 -14 22 11 39 25 16 27 16 55 -11 l29 -28 37 36 36
36 -23 31 c-21 31 -21 61 0 61 6 0 25 -10 41 -23 l31 -22 34 40 c39 47 41 56
14 80 -23 20 -25 36 -9 52 8 8 20 6 43 -8 17 -10 34 -19 38 -19 3 0 21 18 39
41 l32 40 -32 33 c-38 40 -27 62 20 39 39 -20 49 -14 79 42 l25 47 -29 23
c-19 15 -27 29 -23 40 4 9 11 14 16 11 5 -3 24 -8 43 -11 32 -5 35 -3 57 42
14 30 19 49 12 51 -6 2 -11 8 -11 14 0 5 -10 19 -22 30 l-23 19 41 -5 c47 -7
52 -2 77 64 15 39 15 46 3 55 -8 6 -24 17 -35 25 -31 22 -26 28 25 28 25 0 47
2 49 4 2 2 10 25 16 50 13 46 12 48 -14 72 -34 32 -34 36 3 36 36 0 49 21 53
86 2 41 -1 49 -17 52 -11 2 -25 10 -32 17 -11 11 -7 14 20 19 43 8 53 21 57
72 2 31 -2 46 -19 65 l-23 24 21 9 c25 11 32 38 28 97 -2 37 -8 46 -31 57 -31
15 -27 29 10 43 24 9 25 13 20 60 -4 34 -13 57 -28 70 -20 17 -20 19 -4 35 13
14 15 27 10 68 -8 57 -19 76 -45 76 -10 0 -20 7 -24 15 -3 9 0 15 8 15 7 0 19
6 25 14 17 20 -5 94 -36 123 -20 18 -23 25 -14 42 9 15 6 32 -9 74 -19 50 -24
56 -57 62 l-37 7 23 17 c18 14 22 24 18 42 -10 38 -46 91 -65 96 -13 3 -17 13
-15 36 2 22 -5 44 -25 72 -23 32 -35 41 -64 43 -37 3 -37 3 -17 23 10 10 19
22 19 27 0 19 -78 107 -93 104 -13 -2 -17 4 -17 25 0 40 -74 111 -112 107 -26
-3 -26 -1 -15 23 11 24 8 29 -38 69 -33 28 -56 42 -67 38 -17 -5 -22 4 -19 32
0 5 -19 25 -44 44 -44 33 -81 45 -91 28 -12 -19 -23 -7 -14 16 10 27 -6 45
-72 85 -33 20 -37 20 -52 6 -16 -17 -17 -16 -20 25 -1 8 -24 27 -53 43 -42 22
-56 25 -77 17 -14 -5 -26 -14 -26 -20 0 -5 -4 -10 -9 -10 -4 0 -6 11 -3 25 6
33 -12 53 -68 77 l-45 19 -22 -28 c-22 -27 -23 -27 -24 -5 -2 36 -4 41 -14 50
-5 5 -31 16 -57 25 -51 17 -61 13 -92 -33 l-16 -24 0 37 c0 43 -23 62 -85 72
-37 6 -42 5 -53 -19 -15 -33 -32 -34 -32 -2 0 32 -17 44 -70 46 -66 4 -67 3
-80 -35 -13 -40 -30 -46 -30 -12 0 31 -29 64 -60 69 -14 2 20 7 75 11 142 10
1577 148 1593 152 22 7 8 203 -16 227 -4 4 -88 -1 -188 -10 l-181 -16 -49 35
c-27 20 -84 57 -126 83 -43 27 -78 50 -78 52 0 1 5 14 11 28 10 21 8 28 -20
55 -18 17 -36 29 -42 26 -15 -10 -10 17 7 36 22 24 21 65 -1 89 -24 27 -118
26 -285 -3 l-125 -22 -80 23 c-44 13 -119 30 -166 39 l-86 17 -15 120 c-19
143 -32 182 -108 341 -87 180 -128 209 -290 208 -114 -1 -170 -8 -595 -78
-807 -132 -997 -144 -1965 -121 -350 8 -390 7 -444 -8 -72 -21 -106 -55 -106
-105 0 -47 29 -95 133 -223 47 -58 91 -116 97 -129 l13 -23 -29 23 c-16 12
-52 38 -81 57 -47 33 -51 38 -46 68 4 28 1 33 -35 54 -22 12 -50 21 -63 20
-21 -3 -33 14 -101 144 -100 193 -163 282 -264 377 -195 182 -510 286 -1070
351 -234 27 -238 28 -242 63 -2 19 1 27 12 27 29 0 19 48 -12 64 -73 38 -270
38 -343 1 -32 -17 -42 -65 -13 -65 10 0 14 -7 12 -22 -3 -22 -11 -24 -123 -35
-66 -7 -156 -22 -200 -34 -123 -33 -127 -33 -155 -9 -14 12 -37 28 -52 36 -30
16 -37 41 -14 50 8 3 24 1 35 -5 32 -18 61 20 59 76 -2 24 -8 49 -15 55 -9 7
-10 15 -3 29 9 16 4 24 -32 50 -24 17 -60 40 -80 50 -21 11 -38 21 -38 22 0 2
11 27 25 55 17 36 24 64 21 89 -3 32 8 56 75 169 44 73 88 143 98 156 l19 23
51 -18 c40 -14 55 -15 73 -6 50 27 200 -16 254 -72 l27 -29 -18 -33 c-22 -42
-15 -79 19 -95 28 -13 66 8 66 37 0 38 -71 160 -116 199 l-44 40 25 16 c28 18
45 21 45 6 0 -20 62 -79 95 -90 54 -18 103 -3 151 46 48 50 49 50 203 30 73
-10 113 -11 133 -4 30 11 58 53 58 88 0 33 -27 78 -52 86 -13 4 -81 7 -152 5
-103 -2 -127 0 -124 11 3 9 39 14 134 19 71 3 137 9 147 13 23 11 37 38 37 75
0 43 -9 60 -41 76 -25 13 -39 13 -115 0 -129 -22 -178 -20 -197 9 -34 51 -116
66 -242 45z m-290 -58 c127 -13 225 -31 225 -43 0 -22 -31 -34 -128 -50 -118
-20 -140 -30 -209 -92 l-50 -45 -174 -11 c-340 -21 -358 -27 -395 -119 l-21
-52 -7 40 c-27 171 -18 226 47 275 101 77 440 123 712 97z m-185 -266 c0 -3
-10 -21 -22 -40 -21 -31 -28 -35 -68 -35 -70 -1 -175 -26 -233 -57 -29 -15
-90 -65 -136 -110 l-84 -82 5 97 c5 111 25 165 69 187 35 19 469 55 469 40z
m231 -61 c-21 -10 -45 -13 -65 -8 -27 6 -29 8 -11 15 11 4 40 8 65 7 l45 0
-34 -14z m-311 -64 c0 -22 -155 -270 -166 -266 -7 3 -15 2 -19 -2 -4 -4 -12
-7 -18 -7 -10 0 -70 -78 -97 -125 -10 -18 -19 -11 -25 21 -7 39 -43 62 -87 55
-38 -6 -38 -6 -38 28 0 25 11 48 38 83 98 122 210 195 328 212 83 12 84 12 84
1z m-647 -451 c7 -11 -14 -52 -83 -160 -92 -143 -339 -482 -317 -434 27 59
372 615 380 612 6 -2 15 -10 20 -18z m54 -43 c-3 -7 -1 -18 4 -23 11 -11 -401
-714 -414 -706 -4 2 -14 -1 -22 -7 -11 -9 -21 -8 -45 6 -16 10 -30 22 -30 27
0 5 58 84 128 175 148 193 213 285 306 435 61 97 87 130 73 93z m297 -146 l47
-21 -21 -32 c-11 -18 -39 -65 -63 -104 -23 -40 -45 -73 -48 -73 -6 0 -20 90
-33 205 -4 35 18 57 50 50 11 -2 41 -14 68 -25z m-140 -91 c3 -34 6 -99 6
-143 l0 -82 -146 -240 c-80 -131 -148 -242 -152 -246 -12 -12 -101 75 -104
103 -2 18 51 116 187 347 105 177 193 322 196 322 3 0 9 -28 13 -61z m-724
-575 c-18 -21 -24 -10 -8 15 7 12 14 17 16 11 2 -6 -2 -17 -8 -26z m-30 -109
c35 -22 39 -28 30 -45 -9 -17 -21 -20 -70 -20 l-60 0 28 45 c15 25 28 45 30
45 1 0 20 -11 42 -25z m-330 -92 c63 -24 120 -49 125 -55 12 -13 10 -12 -103
36 -46 20 -107 43 -137 52 -30 8 -55 17 -55 20 0 9 56 -9 170 -53z m1326 -852
l116 -355 -51 -98 c-28 -54 -51 -106 -51 -115 0 -33 -17 3 -45 92 -15 50 -42
128 -61 174 -31 73 -33 85 -21 100 8 9 13 21 12 26 -2 6 -6 22 -9 38 -4 15
-13 27 -21 27 -24 0 -28 21 -6 36 28 20 27 44 -5 107 -36 70 -73 123 -159 227
l-73 87 -32 144 c-17 79 -33 154 -37 167 l-5 22 47 -20 c63 -27 82 -25 100 10
19 37 20 35 -11 64 l-27 24 28 48 28 48 84 -249 c46 -138 136 -409 199 -604z
m-1046 716 c0 -4 -21 4 -47 19 -71 40 -76 50 -10 18 31 -16 57 -32 57 -37z
m285 -179 c120 -89 380 -343 433 -423 l33 -50 -38 45 c-176 206 -304 327 -468
445 -92 65 -91 65 -79 65 5 0 59 -37 119 -82z m-495 -48 l59 -30 -136 -230
c-126 -212 -139 -230 -164 -230 -56 0 -109 -47 -109 -96 0 -9 -17 -33 -37 -53
-25 -24 -34 -29 -29 -16 4 11 26 70 47 130 22 61 64 160 93 220 54 110 194
335 209 335 4 0 34 -13 67 -30z m1478 -151 c123 -110 308 -151 737 -166 127
-4 217 -9 200 -10 -149 -15 -392 -72 -521 -123 -104 -42 -146 -64 -241 -126
-44 -30 -83 -54 -86 -54 -9 0 -207 616 -207 642 0 15 12 -1 35 -49 23 -47 51
-86 83 -114z m2543 -65 c35 -25 70 -53 77 -62 8 -10 12 -51 12 -114 0 -97 0
-98 -22 -93 -131 28 -543 98 -655 111 -69 7 -85 23 -25 26 36 1 36 1 5 5 -36
5 -36 4 -27 27 4 11 19 16 48 16 55 0 225 25 317 46 79 18 142 42 174 68 11 8
23 16 26 16 4 0 35 -21 70 -46z m-791 -115 c-7 -11 -17 -18 -25 -16 -7 3 -62
9 -121 14 l-109 8 70 6 c39 3 98 6 133 7 61 2 62 1 52 -19z m114 6 c-4 -8 -7
-15 -9 -15 -2 0 -5 7 -9 15 -3 9 0 15 9 15 9 0 12 -6 9 -15z m3946 -91 c-60
-25 -105 -36 -155 -40 l-70 -4 111 29 c62 16 120 34 130 40 11 6 30 10 44 11
15 0 -8 -14 -60 -36z m515 -48 c114 -38 245 -96 230 -102 -23 -8 -568 -55
-795 -69 -256 -15 -310 -16 -310 -5 0 10 168 57 245 69 39 6 99 22 135 37 36
15 119 47 185 71 140 50 156 50 310 -1z m-3509 -53 c-11 -11 -36 13 -36 36 l0
26 20 -30 c10 -16 18 -31 16 -32z m744 -33 c135 -5 299 -11 365 -12 66 -1 95
-4 65 -6 -74 -5 -750 18 -825 28 -48 7 -39 8 45 4 58 -2 215 -9 350 -14z
m-5466 -172 c-7 -34 -32 -83 -40 -76 -4 4 37 108 43 108 1 0 0 -15 -3 -32z
m2685 -92 c-2 -2 -40 -18 -84 -35 -87 -35 -171 -83 -254 -145 l-53 -40 6 -61
c8 -76 54 -292 69 -323 6 -12 21 -25 34 -29 l24 -5 -22 -24 c-19 -20 -21 -27
-11 -49 6 -14 19 -25 29 -25 13 0 14 -3 5 -12 -7 -7 -12 -20 -12 -29 0 -15 18
-12 148 22 81 21 155 39 165 39 45 0 4 -19 -136 -62 -180 -56 -239 -71 -262
-66 -13 2 -38 69 -101 268 l-83 264 19 31 c46 74 165 165 280 215 76 33 257
83 239 66z m4941 -96 c-15 -52 -23 -56 -36 -19 -18 48 -17 49 15 49 28 0 29
-2 21 -30z m-3961 3 c65 -15 75 -21 87 -48 45 -101 165 -400 178 -445 9 -30
13 -57 9 -61 -15 -13 -73 -21 -73 -10 0 14 -62 3 -75 -14 -5 -6 -34 -15 -63
-19 l-53 -7 6 44 c6 39 4 46 -16 61 -18 12 -21 18 -11 28 19 19 14 56 -9 68
-16 9 -18 14 -9 25 16 20 8 56 -15 69 -11 6 -22 12 -24 13 -2 2 4 12 14 23 18
20 18 24 -8 148 -15 70 -27 130 -27 135 0 10 6 9 89 -10z m3787 5 c-3 -7 -7
-25 -10 -40 -8 -37 -33 -36 -41 2 -4 17 -11 30 -16 30 -5 0 -9 5 -9 10 0 6 18
10 40 10 27 0 38 -4 36 -12z m-183 -40 c-5 -61 -19 -69 -39 -22 -9 21 -18 41
-19 42 -2 2 -29 -1 -59 -8 l-56 -11 0 -46 c0 -59 -18 -53 -41 15 l-17 51 41 6
c48 6 106 11 158 13 l35 2 -3 -42z m-570 -116 c32 -106 33 -117 7 -74 -11 17
-22 32 -25 32 -3 0 -24 -9 -46 -21 -31 -16 -40 -25 -36 -40 6 -24 2 -24 -31 0
-46 32 -114 64 -197 92 -44 15 -73 30 -65 32 8 3 85 17 170 32 85 14 162 28
170 29 8 2 18 4 21 5 3 0 18 -39 32 -87z m-7743 -152 c6 -63 -10 -320 -19
-320 -8 0 -137 215 -173 289 -15 31 -26 61 -23 68 5 14 49 21 140 19 l70 -1 5
-55z m264 40 c7 -7 4 -22 -9 -47 -10 -21 -24 -50 -29 -64 -6 -15 -51 -99 -100
-188 l-89 -162 -19 29 c-17 27 -17 37 -3 193 14 159 22 219 31 248 4 11 24 13
106 8 56 -4 106 -11 112 -17z m-524 -30 c11 -11 20 -24 20 -29 0 -4 11 -20 25
-35 13 -14 63 -91 111 -171 l87 -145 -7 -74 c-6 -64 -13 -84 -54 -153 -27 -44
-64 -114 -83 -157 -31 -71 -36 -77 -59 -72 -76 15 -68 -3 -163 337 -70 250
-117 434 -117 456 0 13 151 60 198 62 12 1 31 -8 42 -19z m695 -1 c46 -12 91
-29 100 -39 15 -17 8 -23 -115 -100 -128 -80 -241 -163 -309 -224 l-34 -31 30
55 c17 30 53 96 81 145 55 101 118 196 135 207 17 11 18 10 112 -13z m6054 -1
c-6 -13 -35 -48 -64 -79 -29 -30 -69 -81 -89 -112 -32 -50 -39 -56 -56 -47
-23 13 -23 9 -5 85 8 33 15 83 15 112 l0 52 68 4 c160 8 144 10 131 -15z
m-7006 -111 c28 -82 197 -680 193 -684 -3 -3 -315 103 -321 109 -6 7 -87 387
-92 433 -13 113 -17 105 76 153 111 56 121 55 144 -11z m1182 33 c26 -11 45
-24 43 -29 -7 -20 -423 -721 -428 -721 -3 0 -11 9 -18 20 -11 18 3 56 124 328
75 169 145 323 157 342 16 27 62 77 74 80 1 0 22 -9 48 -20z m-282 -362 c-74
-167 -138 -306 -142 -310 -8 -9 -171 255 -171 276 0 16 93 105 175 168 78 59
247 168 261 168 6 0 -49 -136 -123 -302z m-1161 222 c5 -19 13 -44 18 -55 13
-28 92 -397 86 -402 -3 -3 -22 3 -43 13 -27 14 -57 46 -106 114 -81 114 -147
223 -147 243 0 9 23 33 52 54 115 85 127 87 140 33z m1798 -80 c7 -13 3 -23
-16 -41 -15 -13 -29 -32 -33 -41 -7 -18 -212 -230 -218 -225 -1 2 38 73 88
158 133 225 115 202 145 183 13 -9 29 -25 34 -34z m7588 3 c11 -10 25 -42 31
-73 12 -53 70 -424 67 -426 0 -1 -76 -4 -169 -7 -123 -4 -167 -2 -166 7 3 28
-3 36 -26 36 -27 0 -34 15 -10 24 17 6 20 43 5 48 -11 3 35 243 50 263 4 6 11
29 15 52 9 57 35 77 109 84 33 3 64 7 67 7 4 1 16 -6 27 -15z m173 7 c63 0 99
-31 99 -85 0 -19 4 -43 9 -53 6 -9 17 -88 26 -174 18 -170 16 -181 -33 -216
-26 -19 -30 -19 -88 -4 l-61 16 -23 155 c-12 86 -26 199 -30 251 -6 81 -5 97
9 107 9 7 22 10 29 8 8 -3 36 -5 63 -5z m-419 -55 c-1 -11 -4 -45 -7 -75 -3
-30 -12 -87 -21 -126 -14 -67 -17 -71 -40 -66 -25 4 -25 5 -4 19 29 21 25 43
-10 50 -31 6 -31 6 -11 24 27 25 17 49 -21 49 l-31 0 26 20 c33 26 25 50 -17
51 l-31 0 23 16 c12 8 22 22 22 29 0 16 53 33 95 31 24 -2 29 -6 27 -22z m657
13 c28 -6 58 -19 67 -29 14 -15 14 -20 -1 -55 -9 -22 -18 -46 -20 -54 -5 -24
-114 -246 -115 -235 0 6 -5 44 -10 85 -13 95 -22 279 -14 291 7 12 32 11 93
-3z m-2770 -104 c-8 -48 -8 -92 -1 -135 8 -51 6 -82 -8 -154 l-18 -90 -1 245
c-1 243 -1 244 19 225 18 -18 18 -26 9 -91z m-7234 69 c10 -16 25 -35 35 -43
16 -14 173 -230 167 -230 -2 0 -57 18 -122 40 -130 43 -265 101 -265 112 0 13
140 148 154 148 8 0 22 -12 31 -27z m2068 16 c37 -19 137 -122 137 -141 0 -10
-5 -18 -12 -18 -6 0 -34 -11 -63 -24 -28 -14 -131 -54 -228 -89 -130 -47 -177
-61 -177 -50 0 20 297 330 318 333 2 0 13 -5 25 -11z m8166 -65 c68 -30 82
-50 49 -72 -13 -9 -34 -28 -48 -42 -26 -28 -274 -220 -284 -220 -9 0 123 265
134 268 5 2 10 9 10 15 0 25 40 77 59 77 11 0 47 -12 80 -26z m-9229 -33 c0
-10 -8 -25 -17 -32 -15 -13 -16 -11 -10 11 4 14 7 31 7 38 0 7 5 10 10 7 6 -3
10 -14 10 -24z m122 -196 l87 -145 -22 -50 c-20 -45 -28 -52 -75 -70 -29 -11
-61 -20 -71 -20 -20 0 -83 19 -92 29 -4 3 -1 76 5 161 11 143 14 158 40 198
16 23 31 42 35 42 3 0 45 -65 93 -145z m9320 105 c67 -48 75 -69 42 -121 -13
-21 -24 -44 -24 -50 0 -12 -228 -399 -234 -399 -3 0 -32 29 -66 64 -52 55
-118 106 -195 151 -11 7 -17 25 -18 59 l-2 50 140 108 c77 60 154 115 170 123
17 7 41 23 55 34 37 30 70 26 132 -19z m-4472 -9 c0 -16 2 -35 5 -43 4 -10
-10 -13 -59 -13 -81 0 -117 -23 -130 -83 -7 -29 -15 -42 -27 -42 -9 0 -19 -6
-22 -13 -3 -9 -17 -12 -40 -9 -29 3 -36 9 -41 33 -3 17 0 38 6 49 7 10 10 21
8 24 -3 2 -36 -2 -74 -10 -38 -8 -71 -12 -74 -10 -14 15 13 34 64 45 33 7 69
19 80 26 27 17 179 57 202 53 9 -2 24 -12 33 -22 18 -21 39 -14 39 13 0 10 3
21 7 24 14 15 23 6 23 -22z m-6084 -11 c39 -11 129 -40 200 -65 140 -49 137
-47 220 -167 42 -61 49 -82 79 -214 l32 -146 -31 -13 c-81 -34 -64 -42 -363
165 -153 106 -285 200 -293 210 -8 9 -30 27 -47 39 -18 12 -33 28 -33 36 0 18
97 162 118 175 9 5 24 7 32 4 8 -3 47 -14 86 -24z m2432 -70 c28 -39 52 -78
52 -85 0 -8 -19 -25 -42 -39 -91 -54 -678 -340 -678 -331 0 13 63 369 66 373
6 8 407 151 413 148 3 -2 26 4 51 14 57 23 68 17 138 -80z m4638 23 c-11 -11
-19 6 -11 24 8 17 8 17 12 0 3 -10 2 -21 -1 -24z m-471 -28 c33 -8 104 -15
157 -15 110 0 148 -10 148 -39 0 -17 -55 -123 -82 -158 -7 -9 -17 -7 -41 7
-41 24 -246 104 -353 138 -46 14 -84 29 -84 32 0 4 30 12 68 19 37 8 74 17 82
22 20 11 35 11 105 -6z m-5552 -145 c-9 -116 -10 -118 -83 -88 l-30 13 58 115
c65 130 67 128 55 -40z m5100 100 c24 -14 46 -20 61 -16 35 9 496 -144 496
-164 0 -4 -51 -13 -112 -22 l-113 -15 -74 30 c-91 36 -234 73 -346 89 -57 8
-85 16 -85 25 0 7 -7 13 -15 13 -25 0 -19 56 8 75 31 23 129 15 180 -15z
m4601 -20 c53 -57 57 -80 21 -132 -14 -20 -25 -40 -25 -44 0 -16 -213 -303
-228 -308 -9 -3 -43 -2 -76 2 -103 12 -103 16 32 243 64 108 125 204 135 213
9 10 24 31 32 47 23 44 54 38 109 -21z m-8934 10 c0 -5 -5 -10 -11 -10 -5 0
-7 5 -4 10 3 6 8 10 11 10 2 0 4 -4 4 -10z m-1384 -13 c4 -8 22 -92 20 -94 -2
-2 -16 16 -32 39 -50 74 -50 72 -18 64 16 -4 29 -8 30 -9z m8764 3 c0 -5 -4
-10 -10 -10 -5 0 -10 5 -10 10 0 6 5 10 10 10 6 0 10 -4 10 -10z m-8414 -135
c6 -8 19 -44 29 -81 17 -65 17 -67 -3 -103 -20 -37 -66 -67 -117 -76 -29 -6
-34 0 -118 121 -69 100 -91 139 -102 188 -8 33 -15 64 -15 68 0 11 314 -102
326 -117z m1024 108 c0 -5 -14 -91 -32 -192 -31 -178 -34 -185 -62 -202 -28
-17 -31 -17 -75 0 -25 10 -54 21 -63 24 -14 5 0 34 89 184 58 98 110 181 117
185 14 10 26 10 26 1z m-1978 -83 c7 0 534 -364 555 -384 9 -8 -26 -25 -144
-68 l-156 -56 -179 135 c-98 75 -178 139 -178 143 0 4 -18 20 -40 35 -22 15
-40 36 -40 46 0 26 68 172 87 186 12 10 22 7 52 -12 19 -14 39 -25 43 -25z
m2739 -43 c21 -45 39 -90 39 -102 0 -13 -25 -44 -67 -82 -112 -101 -337 -273
-358 -273 -11 0 -111 32 -222 72 -172 62 -203 76 -203 93 0 17 59 49 328 182
384 189 413 202 431 195 7 -3 31 -41 52 -85z m4487 75 c-7 -10 -40 -53 -73
-95 -58 -75 -60 -77 -78 -59 -18 18 -17 20 11 68 24 41 34 50 66 55 21 3 47
16 59 28 26 26 33 27 15 3z m2162 14 c0 -3 -4 -8 -10 -11 -5 -3 -10 -1 -10 4
0 6 5 11 10 11 6 0 10 -2 10 -4z m-42 -63 c-12 -15 -38 -17 -38 -4 0 5 3 16 6
25 5 12 9 13 24 3 14 -8 16 -15 8 -24z m-7819 -12 c8 -15 5 -20 -16 -30 -32
-15 -37 -10 -22 23 14 31 25 33 38 7z m8677 -28 c-2 -3 -9 -2 -15 2 -8 4 -7
13 1 28 l13 22 3 -23 c2 -13 1 -26 -2 -29z m870 -17 c43 -65 44 -90 2 -112
-18 -9 -39 -21 -46 -27 -17 -13 -264 -129 -268 -125 -4 5 160 230 199 272 21
22 37 43 37 47 0 22 46 -11 76 -55z m-10047 33 c17 -6 31 -16 31 -21 0 -16
-43 -83 -47 -72 -21 68 -30 104 -24 104 5 0 22 -5 40 -11z m3802 -31 c12 -16
17 -32 13 -50 -8 -39 11 -66 52 -74 31 -6 224 17 277 32 30 9 31 -24 2 -61
-49 -65 -76 -139 -77 -210 0 -97 -15 -79 -20 25 -6 129 -10 131 -218 155 l-46
6 -27 91 c-23 73 -26 93 -15 99 22 14 39 10 59 -13z m-3668 -15 c35 -13 47
-22 47 -37 0 -17 -15 -26 -76 -47 -41 -14 -73 -21 -71 -15 2 6 12 35 21 64 10
28 21 52 24 52 4 0 28 -8 55 -17z m336 -28 c-24 -41 -35 -49 -44 -35 -11 17 5
51 28 60 36 14 37 12 16 -25z m7868 10 c25 -13 50 -51 39 -62 -1 -1 -20 15
-41 37 -43 44 -43 47 2 25z m-8617 -96 c40 -55 70 -101 68 -103 -15 -11 -89
-33 -92 -28 -2 4 -13 52 -25 107 -13 55 -24 106 -26 113 -9 25 5 9 75 -89z
m8572 74 c18 -19 28 -42 30 -68 3 -35 0 -40 -20 -43 -13 -2 -29 2 -37 8 -24
20 -37 2 -20 -29 12 -24 12 -31 1 -46 -11 -15 -18 -16 -44 -7 -38 13 -49 1
-28 -30 9 -12 16 -26 16 -30 0 -5 -31 -8 -70 -8 -38 0 -70 4 -70 9 0 5 13 20
29 33 41 32 129 144 154 195 12 24 24 43 27 43 3 0 18 -12 32 -27z m-8032 -9
c0 -2 -13 -4 -30 -4 -20 0 -30 5 -30 14 0 12 6 13 30 5 17 -6 30 -13 30 -15z
m144 11 c-4 -9 -18 -15 -38 -14 l-31 1 30 13 c39 18 46 18 39 0z m8477 -15
c27 -15 24 -35 -11 -60 l-30 -21 -34 28 c-33 25 -34 29 -19 45 18 20 64 24 94
8z m-2857 -51 c-3 -5 -14 -9 -24 -9 -17 0 -18 3 -8 26 11 24 13 24 25 8 7 -9
10 -21 7 -25z m3013 -35 c-21 -44 -22 -45 -25 -19 -2 15 4 35 14 46 30 33 35
21 11 -27z m91 34 c19 -19 14 -76 -8 -98 -19 -19 -74 -28 -83 -12 -3 4 7 33
20 65 26 57 46 70 71 45z m-321 -57 c-9 -11 -14 -9 -29 9 -30 37 -23 55 11 28
22 -17 26 -26 18 -37z m-9996 22 c8 -9 25 -21 39 -27 14 -6 99 -67 189 -136
l164 -124 -29 -13 c-44 -19 -68 -16 -214 27 -199 57 -239 72 -243 89 -3 18 30
156 44 183 12 22 32 23 50 1z m1161 -5 c-7 -7 -12 -8 -12 -2 0 14 12 26 19 19
2 -3 -1 -11 -7 -17z m1835 -63 c33 -115 30 -126 -37 -141 -64 -15 -362 -56
-367 -50 -4 4 226 185 307 243 25 17 52 31 60 30 9 -1 23 -32 37 -82z m7080
58 c-9 -9 -20 -14 -24 -10 -3 4 2 14 13 21 25 19 33 10 11 -11z m1234 17 c23
-13 69 -101 69 -134 0 -22 -4 -24 -62 -27 -35 -2 -139 -2 -233 1 -139 4 -165
7 -145 17 14 6 75 35 135 63 61 29 121 54 134 57 13 2 36 10 50 18 32 17 28
17 52 5z m-10237 -95 c-21 -28 -29 -33 -41 -24 -7 7 -12 17 -10 22 2 8 45 29
75 36 2 1 -9 -15 -24 -34z m6110 -1 c5 -16 15 -46 24 -66 10 -25 12 -51 8 -78
-7 -43 -51 -140 -64 -140 -4 0 -6 72 -4 161 2 119 6 159 15 156 7 -2 16 -17
21 -33z m-5224 -9 l35 -12 -31 -16 c-30 -15 -30 -15 -58 20 -32 39 -35 39 54
8z m7661 5 c10 -6 19 -20 19 -30 0 -18 -7 -20 -65 -20 -69 0 -78 7 -45 40 22
22 60 26 91 10z m899 -10 c28 -28 17 -40 -36 -40 -46 0 -62 14 -50 45 8 22 62
19 86 -5z m-9506 -14 c15 -23 14 -28 -18 -88 -18 -35 -35 -70 -38 -78 -4 -13
-7 -13 -21 -2 -18 15 -50 143 -39 154 7 7 79 36 93 37 4 1 14 -10 23 -23z
m1035 -15 c11 -7 11 -22 -3 -97 -9 -48 -18 -89 -20 -91 -2 -2 -11 18 -21 44
-10 27 -27 63 -37 81 -11 18 -19 34 -17 36 11 9 65 35 74 35 6 1 16 -3 24 -8z
m-1163 -69 c7 -29 9 -52 6 -50 -21 9 -112 74 -112 79 0 8 61 28 80 25 9 -1 19
-21 26 -54z m1471 -42 c91 -32 94 -37 28 -45 -33 -4 -122 -15 -197 -24 -76
-10 -138 -15 -138 -12 0 3 7 44 15 91 8 47 15 86 15 87 0 1 51 -16 113 -38 61
-23 136 -49 164 -59z m8050 58 c-3 -8 -6 -5 -6 6 -1 11 2 17 5 13 3 -3 4 -12
1 -19z m123 13 c0 -13 -50 -51 -67 -51 -11 0 -33 37 -33 56 0 2 23 4 50 4 28
0 50 -4 50 -9z m-1285 -38 c14 -21 25 -41 25 -45 0 -17 -28 -7 -69 24 -38 30
-40 34 -24 45 27 20 41 16 68 -24z m59 10 c21 -24 25 -63 7 -63 -7 0 -51 72
-51 84 0 15 23 4 44 -21z m324 15 c-3 -7 -16 -19 -29 -27 -22 -12 -29 -12 -54
0 -52 25 -43 39 25 39 45 0 61 -3 58 -12z m1149 1 c-14 -8 -22 -8 -30 0 -8 8
-3 11 19 11 25 -1 27 -2 11 -11z m405 0 c234 -12 237 -13 257 -104 18 -79 8
-111 -37 -126 -20 -6 -42 -16 -49 -21 -7 -5 -119 -49 -250 -96 l-239 -87 -16
115 c-9 63 -24 138 -34 167 l-17 52 38 56 c45 65 20 62 347 44z m-10372 -35
c81 -54 98 -72 105 -114 5 -31 1 -48 -20 -84 -15 -25 -34 -46 -43 -46 -8 0
-80 18 -160 40 -120 34 -153 48 -198 82 -30 22 -52 43 -50 45 6 6 288 111 301
112 6 1 35 -15 65 -35z m7290 -16 c-11 -4 -20 -12 -20 -18 0 -5 -9 -10 -20
-10 -17 0 -20 7 -20 40 l0 41 40 -23 c34 -20 37 -24 20 -30z m2709 11 c-16
-23 -24 -28 -30 -17 -13 20 -11 24 14 36 36 17 40 14 16 -19z m-1597 -45 c79
-64 84 -85 23 -96 -44 -9 -410 22 -398 32 5 4 39 15 76 25 38 10 103 35 145
56 42 20 79 38 81 38 2 1 35 -24 73 -55z m-6163 -85 c5 -51 5 -98 1 -103 -5
-4 -25 -2 -47 5 -21 7 -45 13 -53 14 -19 2 -383 136 -393 145 -8 7 312 48 408
53 28 1 56 -3 63 -9 7 -5 16 -51 21 -105z m-3049 97 c51 -6 270 -70 263 -76
-10 -9 -223 -86 -288 -104 -27 -8 -61 -17 -74 -22 l-23 -7 4 99 c2 54 7 105
12 113 6 9 19 11 45 7 20 -4 47 -8 61 -10z m9475 -38 c30 -14 42 -50 26 -84
-22 -48 -131 -18 -131 37 0 19 45 59 66 59 7 0 25 -5 39 -12z m1173 -4 c30
-21 29 -68 -3 -99 -32 -32 -70 -32 -91 0 -22 34 -11 71 29 95 39 24 37 24 65
4z m-8158 -8 c-54 -50 -315 -246 -328 -246 -22 0 -137 194 -119 201 5 2 423
57 442 58 17 1 17 -1 5 -13z m-2036 -26 c46 -35 46 -35 -42 -13 l-67 17 30 12
c39 17 34 18 79 -16z m496 9 c0 -5 -4 -9 -10 -9 -5 0 -10 7 -10 16 0 8 5 12
10 9 6 -3 10 -10 10 -16z m1855 -85 c66 -24 138 -52 160 -64 21 -11 45 -20 52
-20 6 0 19 -10 27 -21 16 -24 13 -135 -6 -197 -9 -30 -13 -33 -37 -27 -14 4
-44 9 -65 11 -50 5 -719 155 -728 163 -3 3 67 63 155 132 l162 127 80 -30 c44
-16 134 -49 200 -74z m-2366 36 c97 -27 111 -35 219 -117 64 -48 120 -91 125
-94 13 -9 -45 -99 -64 -99 -9 0 -146 -11 -305 -25 -159 -14 -337 -28 -395 -30
-104 -4 -106 -4 -119 20 -20 37 -20 205 0 215 91 48 378 158 415 159 11 1 67
-12 124 -29z m491 -70 c0 -28 -4 -40 -14 -40 -25 0 -28 18 -9 50 9 16 19 30
20 30 2 0 3 -18 3 -40z m1179 -98 c-12 -5 -74 14 -71 21 1 4 2 31 2 59 l0 53
38 -65 c21 -36 35 -66 31 -68z m-1374 87 c60 -17 111 -32 113 -34 2 -2 -8 -22
-23 -44 l-26 -41 -81 62 c-115 88 -114 87 -103 88 6 0 59 -14 120 -31z m10727
-6 c14 -12 18 -31 18 -82 -1 -78 -13 -98 -66 -112 -22 -6 -52 -16 -69 -24 -16
-7 -93 -30 -170 -50 -128 -34 -145 -37 -192 -27 -55 11 -133 64 -133 89 0 8
15 20 34 28 96 40 455 166 483 170 18 2 41 9 51 14 23 14 23 14 44 -6z
m-10548 -42 c13 -5 24 -29 37 -77 23 -89 23 -84 -7 -84 -22 0 -66 27 -118 71
-11 10 41 99 57 98 7 0 20 -4 31 -8z m9762 -65 c33 -29 37 -37 28 -53 -19 -32
-56 -46 -86 -34 -23 9 -28 17 -28 46 0 38 18 75 36 75 6 0 28 -15 50 -34z m29
23 c11 -17 -1 -21 -15 -4 -8 9 -8 15 -2 15 6 0 14 -5 17 -11z m-8577 -28 c11
-6 -2 -21 -54 -63 -38 -30 -74 -57 -79 -60 -6 -4 0 27 14 69 l25 75 39 -6 c22
-4 47 -10 55 -15z m3419 -127 c40 -21 73 -40 73 -42 0 -10 -241 8 -278 21 -41
14 -112 64 -112 78 0 5 23 9 51 9 60 0 89 13 89 41 0 17 8 14 52 -25 28 -25
85 -62 125 -82z m-3000 36 c197 -44 365 -84 374 -89 9 -5 33 -13 53 -16 20 -4
40 -14 45 -23 9 -17 -31 -186 -50 -209 -9 -10 -56 -12 -213 -8 -264 6 -341 13
-359 34 -16 18 -227 377 -227 385 0 10 12 8 377 -74z m-1694 26 c15 -11 27
-23 27 -28 0 -4 -25 -8 -55 -8 -30 0 -55 3 -55 6 0 3 8 19 17 34 17 30 20 30
66 -4z m1403 -139 c56 -94 100 -173 99 -175 -5 -6 -350 217 -350 226 0 10 134
122 145 122 3 0 50 -78 106 -173z m5784 127 c0 -28 -4 -44 -11 -42 -6 2 -10 7
-10 11 1 4 1 23 1 42 0 19 5 35 10 35 6 0 10 -21 10 -46z m-942 -28 c3 -3 -19
-6 -49 -6 -30 0 -99 -3 -154 -5 l-100 -6 65 34 65 34 83 -23 c46 -12 87 -25
90 -28z m-6143 -37 c43 -31 55 -52 55 -100 0 -24 -14 -32 -165 -102 -142 -66
-173 -77 -220 -77 l-54 0 85 143 c48 78 88 144 91 147 4 4 61 11 146 18 10 1
38 -12 62 -29z m39 15 c9 -24 4 -25 -24 -4 -24 19 -24 20 -4 20 12 0 25 -7 28
-16z m7804 -25 c154 -31 294 -71 284 -81 -5 -5 -87 0 -193 12 -264 30 -249 26
-249 59 0 35 9 44 38 36 13 -3 67 -15 120 -26z m2676 -46 c-2 -95 -13 -107
-86 -92 -84 17 -292 71 -300 78 -9 8 230 73 286 77 21 2 42 6 45 9 3 3 17 5
31 3 24 -3 25 -5 24 -75z m-10757 60 c-28 -53 -170 -284 -176 -288 -5 -2 -131
-6 -280 -8 -272 -4 -272 -4 -290 19 -26 33 -65 182 -51 199 13 15 35 18 420
54 339 32 383 34 377 24z m6883 -38 c0 -14 -4 -25 -10 -25 -5 0 -10 11 -10 25
0 14 5 25 10 25 6 0 10 -11 10 -25z m1493 9 c34 -4 55 -10 50 -15 -6 -6 -42
-3 -89 7 -79 16 -119 32 -54 21 19 -3 61 -9 93 -13z m-6917 -126 c106 -67 192
-123 190 -125 -6 -6 -411 18 -419 26 -8 8 21 221 30 221 3 0 92 -55 199 -122z
m8731 101 c39 -14 33 -26 -22 -41 -60 -17 -63 -14 -49 40 7 23 12 23 71 1z
m-1667 2 c0 -13 -20 -18 -47 -13 -36 7 -27 22 12 22 19 0 35 -4 35 -9z m-7302
-84 c-6 -43 -15 -77 -19 -77 -8 0 -49 54 -49 65 0 8 74 94 78 91 1 -2 -3 -37
-10 -79z m8697 77 c23 -9 36 -49 25 -78 -6 -16 -19 -26 -45 -30 -20 -4 -43
-10 -50 -12 -23 -9 -30 58 -11 95 17 31 43 39 81 25z m-9575 -40 c0 -8 -7 -14
-15 -14 -10 0 -15 10 -15 26 0 22 2 25 15 14 8 -7 15 -19 15 -26z m8431 20 c4
-2 9 -13 12 -24 6 -24 -11 -26 -81 -9 -58 15 -58 15 -42 34 10 12 24 14 59 9
25 -4 49 -8 52 -10z m1677 -44 c81 -22 158 -46 172 -54 14 -7 40 -17 58 -21
32 -7 54 -35 46 -60 -1 -5 -10 -35 -18 -66 -9 -31 -23 -59 -31 -63 -8 -3 -29
7 -48 22 -17 15 -42 33 -55 40 -26 15 -292 231 -292 238 0 8 22 3 168 -36z
m-4038 15 c0 -25 -69 -36 -215 -33 -116 2 -140 6 -140 18 0 12 20 16 100 21
207 11 255 10 255 -6z m2039 -1 c2 -2 -10 -4 -27 -4 -18 0 -32 5 -32 10 0 9
47 4 59 -6z m1936 -100 c72 -58 144 -120 161 -138 18 -18 45 -44 61 -57 45
-38 48 -69 14 -136 -39 -78 -55 -86 -122 -66 -47 13 -426 152 -517 189 l-34
14 36 49 c20 27 54 88 76 134 l39 85 58 15 c32 8 67 15 78 16 12 1 75 -44 150
-105z m-9972 45 c29 -23 53 -44 55 -48 7 -18 -46 -50 -88 -53 l-45 -3 -8 64
c-7 50 -6 65 4 72 22 13 26 12 82 -32z m5404 25 c6 -18 -62 -24 -283 -25 -131
-1 -207 2 -220 9 -16 10 -13 12 21 13 22 1 101 5 175 9 187 10 303 8 307 -6z
m2331 -15 c174 -18 157 -34 -30 -26 -138 6 -154 8 -172 28 l-21 21 50 -5 c28
-3 105 -11 173 -18z m-3083 -11 c7 -7 -47 -8 -170 -4 -256 9 -288 22 -45 18
123 -2 209 -8 215 -14z m3685 13 c14 -4 20 -10 15 -13 -6 -3 -23 0 -40 7 -32
14 -17 18 25 6z m-8446 -32 c3 -17 6 -44 6 -60 l0 -29 -84 0 c-45 0 -112 -2
-147 -5 l-64 -5 130 64 c72 35 135 65 141 65 6 1 14 -13 18 -30z m896 -72 c0
-8 -190 1 -198 8 -2 2 13 13 35 24 21 11 49 29 63 41 l25 20 37 -43 c21 -23
38 -46 38 -50z m7004 22 l-31 -31 -100 16 c-55 9 -103 16 -107 16 -3 0 -6 4
-6 9 0 11 56 16 190 19 l85 2 -31 -31z m344 25 c56 -7 64 -20 32 -49 -14 -13
-17 -22 -10 -35 7 -13 6 -20 -4 -23 -14 -6 -347 41 -356 50 -3 2 11 18 30 34
34 28 38 28 145 29 61 0 134 -3 163 -6z m-8018 -29 c17 -9 30 -18 30 -20 0 -3
-23 -5 -52 -5 -50 0 -51 0 -33 20 22 24 19 24 55 5z m8368 -45 c25 -34 27 -48
8 -73 -14 -18 -45 -18 -108 0 -28 7 -23 58 8 82 37 29 66 26 92 -9z m874 -15
c15 -25 24 -45 21 -45 -20 0 -93 34 -93 43 0 12 30 47 39 47 3 0 18 -20 33
-45z m-8846 16 c-4 -5 -29 -28 -56 -51 l-50 -42 0 40 c0 40 1 41 43 50 57 13
69 14 63 3z m63 -23 c5 -18 38 -120 71 -226 34 -106 60 -195 58 -197 -2 -2
-69 56 -150 128 -136 122 -146 135 -147 167 0 31 9 42 72 97 40 34 75 62 79
63 3 0 11 -15 17 -32z m199 18 c5 -6 -45 -339 -56 -369 -5 -11 -28 48 -66 170
-33 104 -62 194 -64 202 -5 12 10 13 87 8 51 -3 96 -8 99 -11z m-808 -21 c-28
-30 -40 -32 -40 -6 0 20 13 29 44 30 18 1 18 -1 -4 -24z m229 11 c8 -10 -9
-58 -74 -207 -76 -171 -116 -243 -128 -228 -2 2 -16 85 -30 184 l-26 180 42
43 41 42 82 0 c56 0 85 -4 93 -14z m148 4 l44 0 -3 -57 c-2 -43 -7 -59 -18
-61 -20 -3 -142 106 -134 120 4 5 20 7 36 4 17 -3 50 -6 75 -6z m703 -296
c129 -168 237 -311 239 -317 2 -7 15 -27 29 -44 13 -18 22 -39 19 -47 -9 -22
-112 -97 -154 -111 -37 -13 -39 -13 -73 21 -20 19 -39 34 -44 34 -15 0 -318
283 -326 305 -9 23 57 465 69 465 3 -1 112 -138 241 -306z m100 290 l115 -6
95 -161 c133 -224 181 -324 170 -351 -10 -26 -120 -133 -141 -138 -24 -5 -71
51 -312 362 -121 157 -225 291 -231 299 -9 11 5 12 89 7 55 -3 152 -9 215 -12z
m-1236 -25 c8 -39 7 -40 -296 -344 -244 -245 -288 -285 -309 -285 -20 0 -127
97 -144 131 -14 27 -13 32 28 111 23 46 76 139 117 207 l74 123 75 36 c85 40
137 48 327 50 l122 2 6 -31z m-514 15 c0 -3 -7 -18 -16 -33 -12 -20 -54 -45
-164 -96 -82 -37 -151 -67 -154 -67 -3 1 -25 -7 -49 -17 -31 -13 -48 -16 -61
-9 -19 11 -86 149 -86 178 0 21 68 29 340 40 96 4 178 7 183 8 4 1 7 -1 7 -4z
m90 1 c0 -4 -67 -35 -77 -35 -2 0 1 9 7 20 7 13 21 20 40 20 17 0 30 -2 30 -5z
m2170 -16 c80 -6 149 -15 154 -19 11 -11 -58 -169 -81 -187 -12 -10 -25 -7
-67 14 -56 29 -336 202 -336 208 0 5 141 -2 330 -16z m6580 6 c0 -9 -9 -15
-25 -15 -26 0 -34 15 -12 23 23 10 37 7 37 -8z m-6617 -206 c10 -10 31 -26 47
-34 17 -9 30 -21 30 -28 0 -18 -102 -166 -119 -172 -9 -4 -17 -1 -19 5 -2 6
-18 30 -36 53 -32 42 -226 368 -226 379 0 9 301 -181 323 -203z m6274 191 c76
-11 149 -22 163 -26 l25 -6 -25 -19 c-34 -25 -47 -24 -174 17 -190 61 -189 63
11 34z m-7567 -85 c11 -13 11 -18 -1 -30 -40 -39 -244 -213 -247 -210 -2 1 29
77 69 168 l73 166 46 -39 c26 -22 53 -46 60 -55z m7276 65 c26 -10 26 -11 8
-24 -22 -17 -40 -11 -47 15 -6 22 1 23 39 9z m1749 -10 c19 -7 18 -9 -7 -19
-33 -12 -59 -5 -51 15 6 15 27 17 58 4z m-1565 -46 c19 -7 61 -20 93 -29 31
-9 57 -19 57 -23 0 -7 -149 -107 -159 -107 -4 0 -23 -11 -43 -23 -52 -32 -71
-23 -102 49 -31 71 -27 102 18 140 32 28 47 27 136 -7z m458 20 c51 -6 60 -15
43 -43 -12 -18 -3 -41 15 -41 8 0 14 -5 14 -11 0 -8 -11 -9 -32 -5 -53 10
-228 68 -228 75 0 3 12 14 28 24 27 18 37 18 160 1z m-8296 -185 l26 -181 -36
-32 c-105 -94 -306 -265 -345 -293 -24 -18 -53 -33 -65 -33 -21 0 -148 80
-169 107 -10 13 -8 22 10 47 26 37 537 566 546 566 4 0 19 -81 33 -181z m9222
165 c16 -15 22 -55 10 -67 -5 -5 -58 16 -73 29 -6 5 29 54 39 54 4 0 16 -7 24
-16z m-9902 -121 c-42 -71 -90 -147 -108 -170 -18 -23 -34 -48 -37 -55 -10
-23 -137 131 -137 166 0 9 17 23 37 31 21 9 40 20 43 24 5 9 258 130 272 131
3 0 -28 -57 -70 -127z m10503 10 c266 -99 345 -137 345 -165 0 -31 -74 -124
-104 -132 -17 -4 -40 1 -66 14 -21 11 -46 20 -54 20 -8 0 -72 25 -143 55
l-128 56 -67 107 c-60 97 -65 109 -51 124 12 13 20 15 41 7 15 -6 117 -44 227
-86z m-9398 55 c10 -14 -29 -763 -44 -833 l-9 -40 -102 1 c-63 1 -107 6 -116
13 -8 7 -17 31 -21 54 -3 23 -10 51 -15 62 -5 11 -21 104 -36 206 l-27 186 24
51 c20 43 51 75 173 182 82 72 152 130 156 130 4 0 12 -6 17 -12z m7997 4 c9
-15 -6 -52 -20 -52 -14 0 -20 41 -7 53 9 9 21 9 27 -1z m574 -24 c7 -59 -46
-100 -100 -77 -33 14 -45 50 -29 85 10 23 16 25 69 22 54 -3 57 -5 60 -30z
m122 17 c0 -8 -4 -15 -10 -15 -5 0 -10 7 -10 15 0 8 5 15 10 15 6 0 10 -7 10
-15z m-933 -51 c82 -25 152 -50 157 -54 6 -6 5 -18 -1 -32 -17 -36 -433 -221
-473 -211 -26 7 -100 109 -100 138 0 14 11 30 28 40 15 10 38 29 52 42 37 35
163 122 177 123 7 0 79 -21 160 -46z m998 34 c32 -14 32 -26 0 -34 -36 -9 -54
1 -48 25 6 24 13 25 48 9z m-8573 -143 c104 -95 145 -139 142 -152 -2 -10 -17
-106 -34 -213 -17 -107 -35 -204 -40 -215 -5 -11 -12 -39 -15 -62 -9 -61 -22
-67 -138 -67 l-102 -1 -3 95 c-2 52 4 222 13 377 8 154 15 302 15 327 0 25 3
46 8 46 4 0 73 -61 154 -135z m8058 119 c0 -8 -5 -12 -10 -9 -6 4 -8 11 -5 16
9 14 15 11 15 -7z m858 -41 c6 -31 11 -58 9 -59 -5 -5 -108 43 -108 50 0 8 71
65 81 66 3 0 11 -26 18 -57z m-1018 16 c0 -11 -27 -12 -34 0 -3 4 -3 11 0 14
8 8 34 -3 34 -14z m1120 -114 c0 -2 -13 1 -29 6 -23 8 -31 19 -40 54 -18 71
-13 72 29 6 22 -34 40 -64 40 -66z m-1235 55 c-3 -5 -10 -10 -16 -10 -5 0 -9
5 -9 10 0 6 7 10 16 10 8 0 12 -4 9 -10z m1077 -17 c35 -14 66 -29 70 -33 10
-7 90 -357 90 -390 0 -14 4 -42 9 -64 16 -61 -1 -89 -72 -120 -82 -35 -94 -34
-125 17 -15 23 -30 44 -34 47 -16 12 -240 464 -233 470 4 4 39 20 76 34 38 15
83 36 100 47 41 24 44 24 119 -8z m-983 -4 c18 -6 31 -15 29 -19 -5 -13 -169
-142 -174 -137 -3 2 1 34 7 70 12 62 14 67 48 81 44 18 50 19 90 5z m137 -42
c6 -6 -112 -452 -128 -487 -7 -14 -17 -41 -23 -60 -14 -46 -42 -50 -114 -15
-52 25 -88 65 -76 86 3 4 7 38 10 76 2 37 11 105 19 151 13 68 20 87 43 106
183 154 186 156 226 152 21 -2 41 -6 43 -9z m-304 -74 c-7 -43 -15 -78 -15
-79 -1 0 -37 -28 -79 -62 -42 -34 -80 -62 -85 -62 -5 0 -25 -14 -45 -30 -47
-39 -76 -33 -135 23 -50 48 -55 78 -15 96 15 7 38 20 52 29 24 16 319 160 331
161 3 1 -1 -34 -9 -76z m481 29 l58 -7 38 -70 39 -70 -92 -185 c-153 -311
-140 -296 -240 -273 -80 19 -100 36 -90 83 4 19 8 47 9 61 3 26 123 478 131
490 2 4 23 0 46 -8 24 -8 69 -18 101 -21z m832 20 c30 -19 125 -162 185 -280
38 -73 34 -85 -43 -137 -68 -46 -84 -45 -93 3 -4 20 -11 45 -16 54 -7 14 -88
358 -88 374 0 10 28 2 55 -14z m-367 -252 c68 -132 120 -240 117 -240 -3 0 4
-19 16 -42 l21 -42 -21 -17 c-28 -23 -121 -44 -155 -35 -18 4 -33 21 -51 55
-13 27 -28 51 -33 53 -5 1 -33 48 -62 102 l-54 100 18 105 c32 189 35 201 59
201 18 0 42 -39 145 -240z m-198 222 c0 -15 -42 -237 -45 -241 -2 -2 -16 22
-32 53 l-27 56 34 70 c23 48 39 70 52 70 10 0 18 -4 18 -8z m-70 -7 c0 -10
-44 -95 -49 -95 -4 0 -18 23 -33 50 l-28 50 55 0 c30 0 55 -2 55 -5z m816 -41
c59 -25 113 -52 121 -59 7 -7 29 -19 48 -25 48 -16 45 -38 -11 -93 -60 -59
-78 -63 -106 -24 -11 18 -26 37 -33 42 -13 11 -137 205 -131 205 2 0 53 -21
112 -46z m-9776 -44 c0 -13 -114 -271 -158 -357 -29 -58 -41 -73 -59 -73 -25
0 -174 66 -184 81 -8 14 52 75 235 236 137 120 166 140 166 113z m800 -165
c29 -93 54 -182 56 -196 2 -14 8 -38 14 -54 15 -39 2 -49 -89 -74 -124 -34
-123 -34 -116 52 8 108 67 459 75 450 4 -4 31 -84 60 -178z m134 10 c145 -132
190 -181 180 -196 -12 -19 -165 -87 -185 -82 -11 3 -22 17 -25 32 -4 14 -12
35 -19 46 -6 11 -33 86 -59 167 -25 81 -49 155 -53 165 -8 22 -6 21 161 -132z
m7326 98 c-1 -10 -34 -162 -50 -225 -8 -35 -17 -48 -29 -48 -21 0 -111 62
-124 86 -10 17 16 46 133 146 54 46 70 56 70 41z m-8232 -160 c12 -87 25 -188
28 -225 6 -80 9 -79 -112 -48 -99 26 -111 36 -90 78 9 17 16 37 16 44 0 16
123 307 130 308 3 0 16 -71 28 -157z m8926 67 l24 -46 -19 -109 c-11 -61 -24
-119 -29 -130 -5 -11 -12 -34 -15 -52 -9 -48 -38 -60 -117 -54 -87 8 -96 17
-69 69 12 23 21 46 21 52 0 6 36 86 80 178 62 128 83 163 91 152 5 -8 20 -35
33 -60z m96 -176 c24 -47 45 -92 46 -100 1 -8 12 -31 24 -51 21 -36 21 -38 3
-50 -12 -9 -42 -13 -93 -11 -68 3 -75 5 -73 23 1 11 4 45 6 75 6 76 29 200 36
200 3 0 26 -39 51 -86z"/>
</g>
</svg>
