<?xml version="1.0" standalone="no"?>
<!DOCTYPE svg PUBLIC "-//W3C//DTD SVG 20010904//EN"
 "http://www.w3.org/TR/2001/REC-SVG-20010904/DTD/svg10.dtd">
<svg version="1.0" xmlns="http://www.w3.org/2000/svg"
 width="1280.000000pt" height="1280.000000pt" viewBox="0 0 1280.000000 1280.000000"
 preserveAspectRatio="xMidYMid meet">
<metadata>
Created by potrace 1.15, written by Peter Selinger 2001-2017
</metadata>
<g transform="translate(0.000000,1280.000000) scale(0.100000,-0.100000)"
fill="#000000" stroke="none">
<path d="M5975 12781 c-57 -26 -101 -79 -114 -141 -6 -29 -11 -158 -11 -305
l0 -253 -32 -33 c-52 -52 -125 -77 -316 -110 -98 -16 -238 -43 -312 -60 -74
-17 -166 -37 -205 -45 -79 -18 -167 -12 -221 13 -36 18 -39 24 -175 358 -65
160 -91 202 -149 233 -79 41 -111 33 -497 -128 -357 -149 -390 -168 -419 -237
-29 -69 -20 -109 86 -364 55 -134 100 -256 100 -274 0 -40 -48 -114 -104 -159
-22 -19 -83 -59 -134 -90 -115 -69 -280 -179 -394 -263 -103 -76 -193 -115
-261 -115 l-49 0 -201 200 c-210 208 -230 222 -312 222 -71 -1 -114 -35 -382
-303 -268 -268 -302 -311 -303 -382 0 -82 14 -102 223 -312 l201 -203 -1 -47
c-2 -78 -38 -153 -153 -314 -59 -84 -148 -216 -196 -294 -48 -77 -102 -159
-120 -181 -43 -54 -119 -104 -157 -104 -17 0 -139 45 -272 100 -257 106 -298
116 -368 86 -69 -29 -88 -61 -238 -424 -132 -317 -144 -352 -144 -407 1 -49 6
-68 29 -101 33 -51 54 -62 331 -177 251 -105 259 -111 270 -222 7 -67 4 -88
-54 -340 -16 -71 -39 -188 -50 -260 -36 -225 -61 -301 -118 -362 l-31 -33
-256 0 c-288 0 -341 -7 -393 -53 -72 -64 -73 -66 -73 -497 0 -431 1 -433 73
-497 52 -46 105 -53 393 -53 l256 0 31 -32 c57 -62 82 -138 118 -363 11 -71
41 -220 66 -330 47 -209 51 -272 22 -353 -14 -40 -22 -44 -284 -152 -244 -100
-268 -113 -302 -164 -22 -33 -27 -53 -28 -101 0 -55 12 -90 144 -407 150 -363
169 -395 238 -424 70 -30 111 -20 368 86 133 55 255 100 272 100 38 0 114 -50
157 -104 18 -22 72 -104 120 -181 48 -78 137 -210 196 -294 115 -161 151 -236
153 -314 l1 -47 -201 -203 c-209 -210 -223 -230 -223 -312 1 -71 35 -114 303
-382 268 -268 311 -302 382 -303 82 0 102 14 312 222 l201 200 49 0 c68 0 158
-39 261 -115 114 -84 279 -194 394 -263 51 -31 112 -71 134 -90 56 -45 104
-119 104 -159 0 -18 -45 -140 -100 -274 -106 -255 -115 -295 -86 -364 29 -69
62 -88 419 -237 386 -161 418 -169 497 -128 58 31 84 73 149 233 136 334 139
340 175 358 54 25 142 31 221 13 39 -8 131 -28 205 -45 74 -17 214 -44 312
-60 188 -33 261 -58 315 -108 l33 -31 0 -256 c0 -294 7 -341 57 -397 63 -69
69 -70 513 -67 l395 3 41 28 c22 15 51 46 65 70 24 41 24 46 27 329 l3 288 30
29 c53 53 125 79 316 111 98 17 239 44 313 61 74 17 167 37 205 45 79 18 167
12 221 -13 36 -18 29 -3 198 -409 49 -117 82 -160 143 -189 67 -32 111 -19
480 135 357 149 390 168 419 237 30 70 20 111 -86 368 -55 133 -100 255 -100
271 0 63 87 156 220 236 112 68 303 196 412 275 101 74 193 115 260 116 l48 1
203 -201 c163 -162 211 -203 242 -212 119 -33 148 -14 457 297 263 263 297
307 298 377 0 82 -14 102 -223 312 l-201 203 1 47 c1 69 43 162 117 261 73
100 224 327 281 422 41 71 134 173 177 196 15 8 40 14 57 14 16 0 139 -45 272
-101 229 -96 246 -101 300 -97 82 6 129 40 167 120 17 35 87 202 157 372 119
289 127 312 123 362 -6 66 -43 123 -101 154 -23 12 -141 63 -262 113 -251 105
-259 112 -270 220 -7 64 -6 67 54 337 17 74 43 214 60 310 31 188 59 266 113
321 l30 29 253 0 c287 0 340 7 392 53 72 63 73 66 73 498 l0 385 -26 52 c-19
39 -38 59 -72 80 l-47 27 -287 5 -288 5 -29 27 c-53 50 -81 129 -112 318 -17
96 -43 236 -60 310 -60 270 -61 273 -54 337 11 108 19 115 270 220 276 114
297 126 332 176 24 34 28 50 28 106 -1 62 -9 87 -139 396 -75 182 -148 346
-161 366 -13 21 -43 46 -67 58 -81 39 -114 32 -381 -79 -133 -55 -255 -100
-273 -100 -57 0 -162 96 -229 210 -57 96 -208 322 -281 422 -76 101 -116 193
-116 261 l0 49 200 201 c208 210 222 230 222 312 -1 70 -35 114 -298 377 -309
311 -338 330 -457 297 -31 -9 -79 -50 -242 -212 l-203 -201 -48 1 c-67 1 -159
42 -260 116 -109 79 -300 207 -412 275 -133 80 -220 173 -220 236 0 16 45 138
100 271 106 257 116 298 86 368 -29 69 -62 88 -419 237 -369 154 -413 167
-480 135 -61 -29 -94 -72 -143 -189 -169 -406 -162 -391 -198 -409 -54 -25
-142 -31 -221 -13 -38 8 -131 28 -205 45 -74 17 -215 44 -313 61 -191 32 -263
58 -317 111 l-30 31 0 266 c0 147 -4 282 -10 301 -16 56 -52 100 -104 126
l-50 25 -385 0 c-352 0 -390 -2 -426 -19z m815 -1622 c792 -63 1548 -322 2215
-757 471 -307 895 -706 1230 -1157 482 -647 797 -1425 900 -2216 28 -218 37
-376 37 -634 0 -393 -30 -670 -113 -1045 -36 -163 -57 -236 -59 -200 -7 231
-81 500 -190 692 -28 49 -50 92 -50 96 0 4 36 35 80 67 44 32 80 64 80 69 0
16 -90 129 -181 229 -162 176 -444 356 -684 436 -198 66 -432 96 -652 86
l-142 -7 3 78 c2 44 4 114 5 156 l1 77 118 3 117 3 8 170 c8 159 -6 648 -20
703 -5 20 -11 22 -65 22 -121 0 -354 -22 -427 -41 -86 -22 -135 -51 -201 -120
-66 -69 -107 -158 -120 -260 -5 -46 -10 -86 -10 -90 0 -3 -24 -4 -54 -1 -70 6
-151 -12 -200 -45 l-39 -25 -620 111 c-341 61 -623 113 -625 116 -8 7 17 40
363 486 173 223 324 413 337 421 13 8 78 34 145 57 109 39 122 46 127 70 3 14
5 33 4 41 -1 8 0 45 0 81 l2 67 48 20 c26 11 59 23 75 27 15 4 27 13 27 20 0
8 -13 66 -30 130 -16 64 -30 120 -30 125 0 4 16 11 36 15 l36 6 -6 52 c-25
188 -161 380 -331 468 -123 64 -165 74 -310 74 -116 0 -138 -3 -203 -27 -168
-61 -300 -174 -371 -319 -50 -103 -81 -220 -81 -310 l0 -67 -102 -6 c-117 -7
-565 -23 -930 -32 -137 -4 -248 -9 -248 -12 0 -3 30 -36 66 -74 37 -38 65 -70
63 -73 -2 -2 -204 -9 -449 -15 -245 -7 -455 -15 -468 -19 -21 -6 -9 -18 108
-110 l131 -103 312 6 c172 3 372 9 445 12 72 3 132 2 132 -2 -1 -12 14 -2
-855 -586 -534 -359 -574 -396 -677 -615 -48 -101 -66 -175 -108 -418 -18
-104 -35 -193 -39 -197 -3 -4 -213 -9 -466 -13 -504 -7 -606 -13 -770 -50
-179 -40 -270 -74 -453 -167 l-174 -88 -208 0 c-129 0 -211 4 -215 10 -12 19
-53 10 -73 -15 -62 -79 -45 -334 24 -351 12 -3 28 -3 34 1 5 3 19 3 30 0 19
-6 17 -11 -24 -63 -119 -156 -220 -349 -286 -550 -22 -67 -40 -130 -40 -139 0
-39 -10 2 -34 137 -152 867 -54 1797 274 2605 446 1100 1284 1997 2345 2511
775 376 1612 532 2475 463z m479 -4129 c12 -6 -138 -129 -370 -303 l-36 -27
-204 142 c-248 174 -269 190 -269 199 0 10 860 -1 879 -11z m1653 -171 c9 -35
17 -80 17 -100 l1 -36 -100 -42 c-116 -50 -289 -147 -375 -211 -33 -24 -104
-87 -158 -139 -170 -165 -261 -290 -362 -496 -106 -216 -159 -414 -172 -637
-3 -65 -9 -118 -12 -118 -3 0 -15 21 -25 47 -33 79 -113 189 -191 261 -41 38
-75 72 -75 76 0 8 69 98 595 776 160 206 312 402 337 436 47 61 47 61 230 142
253 112 252 112 263 108 6 -1 18 -31 27 -67z m808 -782 c118 -31 257 -91 307
-133 l23 -19 -171 -215 c-94 -118 -181 -228 -194 -244 l-23 -29 -66 18 c-40
11 -68 24 -71 34 -16 53 -145 579 -145 595 0 18 7 18 143 13 78 -3 167 -13
197 -20z m-5972 -92 c52 -13 99 -28 105 -34 7 -7 -15 -65 -82 -208 -51 -109
-96 -201 -99 -205 -4 -4 -48 -2 -97 4 -75 9 -103 9 -167 -5 -196 -40 -347
-171 -411 -355 -27 -78 -29 -244 -4 -326 10 -32 16 -61 12 -64 -6 -6 -219 -37
-331 -47 l-72 -7 -15 48 c-64 199 -55 426 25 634 30 78 103 200 165 274 135
163 370 284 613 316 93 12 250 1 358 -25z m5360 3 c5 -18 40 -155 78 -305 l69
-271 -33 -39 c-98 -114 -128 -194 -118 -312 4 -42 7 -91 9 -110 l2 -35 -263
-148 c-144 -82 -267 -146 -271 -143 -18 11 -72 158 -91 248 -24 113 -26 310
-5 410 62 293 256 555 516 697 41 22 79 40 86 40 7 0 16 -15 21 -32z m-4935
-223 c73 -62 151 -154 183 -217 l15 -28 -246 0 c-135 0 -245 2 -245 5 0 3 36
80 80 171 l79 165 28 -15 c15 -8 63 -44 106 -81z m6044 23 c118 -124 194 -263
239 -438 25 -96 26 -112 21 -273 -5 -202 -20 -267 -97 -422 -117 -234 -320
-419 -558 -505 -125 -46 -218 -61 -367 -61 -106 0 -148 4 -227 25 -169 43
-329 131 -455 249 -72 68 -138 156 -127 167 5 5 129 75 274 155 l264 146 26
-20 c179 -143 399 -132 543 29 67 75 90 129 95 227 5 96 -11 157 -62 237 l-33
52 191 247 c105 136 196 247 202 247 6 0 38 -28 71 -62z m-8202 -731 c0 -140
10 -234 32 -324 5 -22 3 -23 -60 -23 l-66 0 -19 53 c-24 64 -75 223 -96 295
l-15 52 107 55 c59 30 109 54 112 54 3 1 5 -72 5 -162z m2248 -227 c109 -40
167 -67 167 -76 0 -13 -55 -142 -64 -151 -4 -4 -338 112 -366 127 -19 10 -19
11 0 56 11 25 20 49 20 54 0 5 5 21 10 36 13 34 18 33 233 -46z m3553 -201
c36 -134 95 -277 166 -399 89 -155 75 -147 174 -88 l84 51 123 -128 c227 -238
418 -354 727 -441 l135 -38 220 0 c172 -1 238 3 304 17 231 48 493 169 656
303 22 18 58 47 80 66 l40 33 -24 -40 c-722 -1201 -1900 -2019 -3262 -2266
-463 -83 -997 -96 -1478 -34 -499 65 -988 212 -1456 439 -855 414 -1570 1079
-2053 1911 -84 146 -155 285 -148 292 3 3 30 2 60 -1 l55 -7 58 -87 c64 -97
246 -286 338 -353 153 -111 342 -202 515 -247 143 -38 222 -47 395 -46 142 1
190 5 291 26 120 26 277 79 367 125 139 69 296 185 405 295 l63 65 52 -8 c29
-4 105 -16 169 -28 155 -27 269 -27 793 -2 237 12 669 32 960 46 540 25 593
31 705 75 115 45 250 154 322 258 40 58 92 172 113 250 10 34 20 61 22 59 2
-3 15 -47 29 -98z m-4381 -449 c165 -11 320 -24 345 -28 l45 -8 -67 -17 c-217
-55 -441 -36 -648 57 l-35 15 30 1 c16 0 165 -9 330 -20z"/>
</g>
</svg>
