<?xml version="1.0" standalone="no"?>
<!DOCTYPE svg PUBLIC "-//W3C//DTD SVG 20010904//EN"
 "http://www.w3.org/TR/2001/REC-SVG-20010904/DTD/svg10.dtd">
<svg version="1.0" xmlns="http://www.w3.org/2000/svg"
 width="1280.000000pt" height="1280.000000pt" viewBox="0 0 1280.000000 1280.000000"
 preserveAspectRatio="xMidYMid meet">
<metadata>
Created by potrace 1.15, written by Peter Selinger 2001-2017
</metadata>
<g transform="translate(0.000000,1280.000000) scale(0.100000,-0.100000)"
fill="#000000" stroke="none">
<path d="M6135 12794 c-368 -19 -704 -60 -1020 -125 -1077 -222 -2050 -701
-2900 -1428 -139 -119 -532 -512 -651 -651 -911 -1061 -1429 -2305 -1546
-3705 -16 -193 -16 -777 0 -970 24 -278 62 -551 113 -800 272 -1325 951 -2519
1954 -3439 913 -836 2074 -1399 3280 -1591 55 -8 112 -17 128 -20 44 -7 281
-33 427 -46 176 -16 773 -17 965 -1 564 47 1068 151 1585 326 766 261 1477
669 2115 1215 139 119 532 512 651 651 911 1061 1429 2305 1546 3705 6 83 12
301 12 485 0 426 -21 686 -85 1070 -175 1041 -607 2021 -1261 2861 -333 428
-765 854 -1194 1177 -983 740 -2118 1170 -3359 1272 -127 11 -642 20 -760 14z
m670 -2775 c251 -22 523 -81 667 -146 62 -28 114 -77 124 -118 23 -92 -84
-303 -262 -516 -92 -110 -266 -274 -375 -351 -113 -82 -288 -170 -384 -195
-46 -11 -107 -18 -175 -18 -134 0 -213 20 -355 91 -139 69 -271 162 -401 287
-177 169 -317 350 -395 511 -102 210 -53 281 256 370 321 92 828 125 1300 85z
m-2261 -910 c169 -87 601 -506 744 -721 l24 -37 -57 -53 c-83 -77 -197 -160
-289 -213 l-81 -46 -33 37 c-109 124 -341 568 -422 804 -80 236 -43 310 114
229z m3854 13 c29 -36 8 -155 -55 -317 -85 -219 -305 -625 -392 -725 l-36 -41
-81 46 c-92 53 -206 136 -289 213 l-57 53 25 38 c55 83 187 232 336 381 215
214 361 329 461 363 47 16 68 13 88 -11z m-4748 -571 c160 -100 377 -402 499
-694 94 -227 126 -377 119 -565 -5 -136 -16 -177 -72 -291 -39 -79 -144 -208
-233 -284 -244 -210 -637 -394 -935 -437 -136 -20 -203 4 -244 87 -17 33 -19
62 -19 218 0 99 6 218 14 265 95 615 369 1318 635 1626 55 63 83 84 129 94 38
9 73 3 107 -19z m5652 3 c15 -8 50 -40 78 -72 267 -304 545 -1011 641 -1632 8
-47 14 -166 14 -265 0 -198 -7 -230 -65 -279 -90 -75 -389 -14 -725 149 -362
174 -600 403 -690 660 -24 66 -32 274 -15 369 69 399 361 910 610 1068 47 29
96 30 152 2z m-2804 -771 c52 -39 72 -80 72 -144 0 -68 -26 -113 -85 -146 -78
-44 -181 -19 -232 56 -30 44 -32 132 -4 177 23 39 77 81 111 87 45 8 104 -5
138 -30z m-1229 -833 c70 -20 121 -90 121 -166 0 -131 -142 -215 -255 -151
-99 56 -121 178 -48 265 27 32 87 61 128 62 11 0 36 -4 54 -10z m2401 -15 c35
-18 75 -76 85 -122 3 -17 1 -49 -4 -71 -41 -150 -239 -179 -317 -46 -28 47
-32 119 -10 162 20 38 68 81 102 92 37 12 106 5 144 -15z m-3388 -1134 c29
-73 88 -287 88 -323 0 -45 -389 -135 -748 -173 -235 -25 -373 -15 -419 32 -29
28 -25 51 17 103 98 124 557 381 890 497 l95 33 23 -46 c13 -25 37 -80 54
-123z m4513 97 c214 -84 554 -268 691 -372 167 -127 171 -199 13 -226 -130
-22 -401 3 -717 66 -162 32 -309 73 -341 93 -12 8 -12 21 4 93 25 118 61 228
107 329 l40 87 52 -15 c28 -8 96 -33 151 -55z m-3031 -359 c108 -74 99 -242
-17 -298 -166 -80 -324 109 -216 260 48 69 162 87 233 38z m1443 10 c134 -65
127 -262 -12 -314 -157 -60 -296 104 -211 249 46 79 138 106 223 65z m-2592
-839 c142 -12 249 -40 355 -92 68 -33 102 -58 171 -127 99 -99 152 -183 215
-340 84 -210 123 -413 131 -682 4 -147 2 -206 -11 -285 -43 -252 -123 -283
-436 -167 -556 206 -1367 844 -1560 1227 -66 130 -22 203 177 298 269 127 654
195 958 168z m3970 -11 c198 -28 414 -89 558 -157 199 -95 243 -168 177 -298
-193 -384 -1003 -1020 -1560 -1227 -313 -116 -393 -85 -436 167 -13 79 -15
138 -11 285 8 269 47 472 131 682 63 157 116 241 215 340 98 98 197 154 336
189 153 39 397 46 590 19z m-2047 -504 c57 -3 109 -8 117 -12 52 -19 -36 -699
-125 -965 -88 -263 -172 -263 -260 0 -68 204 -139 653 -140 884 0 72 2 78 23
83 30 8 237 22 262 19 11 -2 66 -6 123 -9z"/>
</g>
</svg>
